<svg width="498.28" height="291.093" viewBox="0 0 373.71 218.32" class="displayed_equation" xmlns="http://www.w3.org/2000/svg" xmlns:xlink="http://www.w3.org/1999/xlink">
  <defs>
    <clipPath id="svg528127907457tikz_00007h">
      <path d="M 93 0.714844 L 106 0.714844 L 106 20 L 93 20 Z M 93 0.714844" />
    </clipPath>
    <clipPath id="svg528127907457tikz_00007o">
      <path d="M 57 78 L 204.4375 78 L 204.4375 202.585938 L 57 202.585938 Z M 57 78" />
    </clipPath>
    <clipPath id="svg528127907457tikz_00007q">
      <path d="M 51 15.726563 L 204.4375 15.726563 L 204.4375 183 L 51 183 Z M 51 15.726563" />
    </clipPath>
    <clipPath id="svg528127907457tikz_00007r">
      <path d="M 15.734375 48 L 42 48 L 42 111 L 15.734375 111 Z M 15.734375 48" />
    </clipPath>
    <clipPath id="svg528127907457tikz_00007s">
      <path d="M 102 135 L 186 135 L 186 202.585938 L 102 202.585938 Z M 102 135" />
    </clipPath>
    <clipPath id="svg528127907457tikz_00007t">
      <path d="M 37.15625 32.714844 L 198.160156 32.714844 L 198.160156 197.414063 L 37.15625 197.414063 Z M 37.15625 32.714844" />
    </clipPath>
    <clipPath id="svg528127907457tikz_00007m">
      <path d="M0 0H9V7H0z" />
    </clipPath>
    <clipPath id="svg528127907457tikz_00007b">
      <path d="M 0.15625 0.714844 L 161.160156 0.714844 L 161.160156 165.414063 L 0.15625 165.414063 Z M 0.15625 0.714844" />
    </clipPath>
    <clipPath id="svg528127907457tikz_00007a">
      <path d="M0 0H162V166H0z" />
    </clipPath>
    <clipPath id="svg528127907457tikz_00007n">
      <path d="M 1 1 L 8 1 L 8 6.6875 L 1 6.6875 Z M 1 1" />
    </clipPath>
    <clipPath id="svg528127907457tikz_00007l">
      <path d="M0 0H11V10H0z" />
    </clipPath>
    <clipPath id="svg528127907457tikz_00007f">
      <path d="M 152 72 L 161.160156 72 L 161.160156 93 L 152 93 Z M 152 72" />
    </clipPath>
    <clipPath id="svg528127907457tikz_00007g">
      <path d="M 0.15625 52 L 28 52 L 28 88 L 0.15625 88 Z M 0.15625 52" />
    </clipPath>
    <clipPath id="svg528127907457tikz_00007p">
      <path d="M 46 68 L 204.4375 68 L 204.4375 202.585938 L 46 202.585938 Z M 46 68" />
    </clipPath>
    <clipPath id="svg528127907457tikz_00007i">
      <path d="M 38 144 L 82 144 L 82 165.414063 L 38 165.414063 Z M 38 144" />
    </clipPath>
    <clipPath id="svg528127907457tikz_00007e">
      <path d="M0 0H162V166H0z" />
    </clipPath>
    <clipPath id="svg528127907457tikz_00007k">
      <path d="M0 0H14V15H0z" />
    </clipPath>
    <clipPath id="svg528127907457tikz_00007j">
      <path d="M0 0H11V9H0z" />
    </clipPath>
    <g id="svg528127907457tikz_00007w" clip-path="url(#svg528127907457tikz_00007j)">
      <path d="M 2.800781 5.582031 L 8.515625 6.804688 L 6.421875 5.035156 L 7.898438 2.722656" />
      <path d="M 1468.007813 1407.379688 L 1525.15625 1395.153125 L 1504.21875 1412.848438 L 1518.984375 1435.973438 Z M 1468.007813 1407.379688" transform="matrix(.1 0 0 -.1 -144 146.32)" fill="none" stroke-width="7.972" stroke-linecap="round" stroke-linejoin="round" stroke="#000" stroke-miterlimit="10" />
    </g>
    <g id="svg528127907457tikz_00007u" clip-path="url(#svg528127907457tikz_00007e)">
      <g clip-path="url(#svg528127907457tikz_00007f)">
        <path d="M 160.558594 77.125 C 160.25 76.203125 159.769531 75.367188 159.234375 74.558594 C 158.996094 74.191406 158.71875 73.867188 158.429688 73.535156 C 158.285156 73.363281 158.148438 73.175781 157.988281 73.019531 C 157.75 72.785156 157.585938 72.8125 157.3125 72.636719 C 157.109375 72.511719 156.933594 72.753906 157.015625 72.933594 C 157.074219 73.070313 157.0625 73.257813 157.121094 73.402344 C 157.203125 73.617188 157.351563 73.800781 157.457031 74 C 157.640625 74.351563 157.769531 74.742188 157.898438 75.121094 C 158.167969 75.902344 158.261719 76.722656 158.332031 77.542969 C 158.476563 79.234375 158.292969 80.925781 157.855469 82.5625 C 157.410156 84.234375 156.601563 85.753906 155.617188 87.167969 C 155.113281 87.898438 154.53125 88.5625 154.058594 89.316406 C 153.566406 90.089844 153.199219 90.878906 152.839844 91.714844 C 152.671875 92.105469 152.945313 92.5625 153.40625 92.449219 C 157.480469 91.453125 159.996094 87.019531 160.855469 83.152344 C 161.296875 81.167969 161.199219 79.054688 160.558594 77.125 Z M 160.558594 77.125" fill="#fff" />
      </g>
      <path d="M140.289063 100.742188C137.359375 102.65625 134.355469 104.539063 131.574219 106.664063 128.765625 108.8125 125.941406 110.941406 123.078125 113.011719 117.339844 117.15625 111.601563 121.300781 105.847656 125.421875 104.269531 126.554688 102.664063 127.648438 101.097656 128.796875 100.289063 129.386719 99.476563 130.015625 98.746094 130.699219 98.058594 131.339844 97.15625 132.050781 97.210938 133.082031 97.222656 133.296875 97.328125 133.566406 97.546875 133.660156 98.359375 134.007813 98.988281 133.765625 99.761719 133.414063 100.605469 133.023438 101.390625 132.574219 102.183594 132.09375 103.714844 131.167969 105.148438 130.058594 106.609375 129.019531 109.5 126.964844 112.347656 124.859375 115.183594 122.726563 120.871094 118.449219 126.398438 113.976563 131.90625 109.476563 135.011719 106.9375 137.886719 104.132813 140.703125 101.277344 140.96875 101.007813 140.621094 100.523438 140.289063 100.742188zM154.570313 8.496094C154.199219 7.800781 153.707031 7.230469 153.066406 6.773438 152.789063 6.574219 152.425781 6.351563 152.078125 6.316406 151.703125 6.277344 151.328125 6.316406 150.945313 6.238281 150.640625 6.179688 150.4375 6.589844 150.726563 6.757813 151.039063 6.941406 151.117188 7.199219 151.289063 7.492188 151.429688 7.730469 151.632813 7.941406 151.792969 8.164063 152.128906 8.632813 152.460938 9.171875 152.679688 9.703125 153.105469 10.726563 153.09375 11.925781 152.847656 12.988281 152.546875 14.28125 151.898438 15.511719 151.054688 16.527344 150.148438 17.617188 148.78125 18.734375 148.476563 20.1875 148.386719 20.609375 148.664063 20.976563 149.097656 21 150.960938 21.101563 152.523438 19.371094 153.539063 18.03125 154.664063 16.558594 155.472656 14.863281 155.628906 12.996094 155.753906 11.464844 155.292969 9.839844 154.570313 8.496094zM134.441406 26.582031C133.476563 27.414063 132.429688 28.144531 131.449219 28.960938 130.472656 29.773438 129.582031 30.671875 128.660156 31.542969 126.789063 33.316406 124.972656 35.148438 123.160156 36.980469 119.570313 40.613281 116.207031 44.480469 112.859375 48.339844 106.175781 56.046875 99.769531 63.996094 93.605469 72.128906 91.878906 74.410156 90.167969 76.703125 88.480469 79.015625 86.796875 81.324219 84.804688 83.585938 83.96875 86.359375 83.773438 87 84.585938 87.726563 85.179688 87.289063 87.242188 85.761719 88.566406 83.613281 90.0625 81.5625 91.554688 79.511719 93.0625 77.476563 94.585938 75.453125 97.644531 71.390625 100.769531 67.375 103.953125 63.410156 110.339844 55.472656 116.972656 47.753906 123.726563 40.132813 125.59375 38.023438 127.429688 35.878906 129.265625 33.738281 130.203125 32.648438 131.191406 31.574219 132.078125 30.445313 132.996094 29.28125 133.808594 28.03125 134.75 26.890625 134.929688 26.675781 134.65625 26.398438 134.441406 26.582031zM72.707031 103.898438C70.808594 105.953125 69.203125 108.203125 67.414063 110.339844 65.605469 112.496094 63.839844 114.691406 61.882813 116.71875 58.386719 120.339844 54.136719 123.507813 49.300781 125.070313 46.996094 125.816406 44.371094 126.585938 42.097656 125.535156 41.007813 125.027344 40.078125 126.035156 40.53125 127.101563 41.738281 129.949219 45.519531 129.699219 48.007813 129.183594 50.835938 128.59375 53.582031 127.394531 56.0625 125.921875 61.207031 122.871094 65.339844 118.417969 68.632813 113.472656 70.539063 110.609375 72.109375 107.453125 73.246094 104.210938 73.351563 103.90625 72.921875 103.667969 72.707031 103.898438zM72.707031 103.898438" fill="#fff" />
      <g clip-path="url(#svg528127907457tikz_00007g)">
        <path d="M 26.046875 83.203125 C 24.972656 82.082031 23.898438 80.957031 22.824219 79.832031 C 20.722656 77.640625 18.582031 75.488281 16.472656 73.308594 C 14.476563 71.238281 12.496094 69.121094 10.652344 66.910156 C 8.894531 64.796875 7.3125 62.507813 5.78125 60.226563 C 4.933594 58.964844 4.128906 57.671875 3.308594 56.390625 C 2.453125 55.050781 1.460938 53.722656 0.761719 52.304688 C 0.628906 52.027344 0.140625 52.226563 0.261719 52.515625 C 0.796875 53.816406 1.148438 55.1875 1.695313 56.496094 C 2.222656 57.761719 2.796875 58.988281 3.433594 60.199219 C 4.75 62.703125 6.238281 65.054688 7.875 67.367188 C 9.574219 69.765625 11.335938 72.074219 13.28125 74.277344 C 15.304688 76.570313 17.390625 78.8125 19.503906 81.023438 C 20.753906 82.328125 22.003906 83.632813 23.25 84.9375 C 24.367188 86.105469 25.667969 87.726563 27.472656 87.464844 C 27.675781 87.4375 27.882813 87.210938 27.921875 87.015625 C 28.226563 85.484375 27.015625 84.21875 26.046875 83.203125 Z M 26.046875 83.203125" fill="#fff" />
      </g>
      <g clip-path="url(#svg528127907457tikz_00007h)">
        <path d="M 105.046875 0.769531 C 104.601563 0.808594 104.285156 0.703125 103.859375 0.742188 C 103.402344 0.785156 103.027344 1.007813 102.648438 1.253906 C 101.839844 1.773438 101.070313 2.371094 100.355469 3.011719 C 98.910156 4.308594 97.367188 5.605469 96.355469 7.28125 C 95.335938 8.972656 94.589844 10.828125 94.164063 12.757813 C 93.945313 13.75 93.804688 14.769531 93.742188 15.785156 C 93.675781 16.886719 93.867188 17.792969 94.328125 18.792969 C 94.75 19.714844 96.1875 19.414063 96.421875 18.523438 C 96.863281 16.855469 96.757813 15.144531 97.128906 13.460938 C 97.488281 11.820313 98.085938 10.230469 98.878906 8.757813 C 99.675781 7.285156 100.363281 5.730469 101.578125 4.550781 C 102.207031 3.941406 102.878906 3.378906 103.601563 2.882813 C 103.976563 2.628906 104.351563 2.40625 104.613281 2.027344 C 104.875 1.652344 104.867188 1.460938 105.1875 1.109375 C 105.292969 0.992188 105.226563 0.757813 105.046875 0.769531 Z M 105.046875 0.769531" fill="#fff" />
      </g>
      <path d="M124.011719 141.285156C124.03125 141.097656 123.78125 141.082031 123.695313 141.203125 123.347656 141.667969 122.84375 141.929688 122.53125 142.441406 122.238281 142.914063 121.96875 143.398438 121.667969 143.867188 121.0625 144.8125 120.324219 145.628906 119.523438 146.414063 117.90625 148 115.976563 149.265625 113.949219 150.265625 109.308594 152.542969 104.148438 154.316406 99.03125 155.113281 97.960938 155.28125 92.203125 155.378906 92.835938 157.378906 93.210938 158.5625 95.089844 158.816406 96.117188 158.886719 97.507813 158.976563 98.90625 158.773438 100.273438 158.558594 102.917969 158.148438 105.496094 157.398438 108.015625 156.503906 110.492188 155.625 112.988281 154.660156 115.246094 153.292969 117.5625 151.894531 119.480469 150.085938 121.09375 147.921875 121.847656 146.910156 122.484375 145.804688 123.09375 144.703125 123.375 144.1875 123.632813 143.667969 123.851563 143.125 124.109375 142.472656 123.9375 141.949219 124.011719 141.285156zM63.203125 22.273438C63.0625 19.777344 62.601563 17.253906 61.675781 14.921875 60.816406 12.753906 59.277344 10.734375 57.433594 9.304688 56.582031 8.644531 55.601563 7.984375 54.5625 7.667969 53.679688 7.398438 52.261719 7.210938 51.453125 7.746094 51.25 7.878906 51.277344 8.195313 51.519531 8.265625 51.996094 8.402344 52.503906 8.375 52.988281 8.492188 53.507813 8.617188 54 8.867188 54.46875 9.121094 55.359375 9.601563 56.09375 10.277344 56.691406 11.09375 57.921875 12.761719 58.613281 14.800781 59.160156 16.78125 59.746094 18.90625 59.929688 21.101563 59.960938 23.300781 59.976563 24.527344 59.9375 25.753906 59.875 26.976563 59.808594 28.242188 59.703125 29.6875 60.597656 30.699219 61.011719 31.164063 61.738281 31.074219 62.164063 30.699219 63.242188 29.746094 63.191406 27.855469 63.234375 26.535156 63.277344 25.113281 63.285156 23.695313 63.203125 22.273438zM61.015625 37.058594C61.003906 36.6875 60.46875 36.605469 60.363281 36.96875 59.921875 38.472656 59.542969 39.929688 59.246094 41.46875 58.945313 43.035156 58.597656 44.597656 58.246094 46.15625 57.558594 49.234375 56.808594 52.300781 56.140625 55.382813 55.480469 58.425781 54.777344 61.460938 54.082031 64.492188 53.375 67.574219 52.476563 70.632813 51.972656 73.757813 51.695313 75.5 51.472656 77.242188 51.066406 78.960938 50.863281 79.820313 50.679688 80.667969 50.546875 81.542969 50.417969 82.402344 50.433594 83.28125 50.40625 84.152344 50.398438 84.410156 50.753906 84.488281 50.882813 84.277344 51.71875 82.914063 52.421875 81.605469 52.925781 80.078125 53.417969 78.589844 53.949219 77.125 54.539063 75.675781 55.742188 72.734375 56.402344 69.625 57.113281 66.539063 58.542969 60.351563 59.714844 54.078125 60.308594 47.753906 60.472656 46.019531 60.644531 44.289063 60.800781 42.554688 60.886719 41.640625 60.988281 40.726563 61.0625 39.808594 61.136719 38.902344 61.039063 37.96875 61.015625 37.058594zM61.015625 37.058594" fill="#fff" />
      <g clip-path="url(#svg528127907457tikz_00007i)">
        <path d="M 81.175781 144.269531 C 80.519531 144.707031 79.8125 144.949219 79.089844 145.25 C 78.378906 145.542969 77.710938 145.925781 77.039063 146.292969 C 75.6875 147.03125 74.375 147.832031 73.027344 148.578125 C 70.332031 150.078125 67.703125 151.6875 64.960938 153.105469 C 62.242188 154.511719 59.511719 155.933594 56.734375 157.226563 C 55.464844 157.816406 54.179688 158.382813 52.890625 158.921875 C 51.476563 159.503906 50.113281 160.1875 48.707031 160.78125 C 47.144531 161.441406 45.535156 161.910156 43.914063 162.40625 C 42.269531 162.910156 40.699219 163.429688 39.136719 164.140625 C 38.746094 164.316406 38.824219 165.027344 39.257813 165.089844 C 40.011719 165.199219 40.703125 165.308594 41.464844 165.277344 C 42.265625 165.242188 43.042969 165.195313 43.84375 165.070313 C 45.351563 164.84375 46.792969 164.417969 48.285156 164.113281 C 51.398438 163.472656 54.332031 162.464844 57.207031 161.121094 C 60.019531 159.8125 62.773438 158.378906 65.371094 156.679688 C 67.992188 154.964844 70.585938 153.1875 73.101563 151.320313 C 74.511719 150.273438 75.914063 149.195313 77.273438 148.085938 C 77.910156 147.570313 78.554688 147.042969 79.148438 146.476563 C 79.863281 145.785156 80.4375 144.992188 81.253906 144.402344 C 81.328125 144.347656 81.257813 144.214844 81.175781 144.269531 Z M 81.175781 144.269531" fill="#fff" />
      </g>
    </g>
    <g id="svg528127907457tikz_00007x" clip-path="url(#svg528127907457tikz_00007k)">
      <path d="M 4.339844 4.175781 L 4.941406 10.015625 L 5.984375 7.464844 L 8.648438 8.160156" />
      <path d="M 1943.398438 1081.442188 L 1949.414063 1023.04375 L 1959.84375 1048.551563 L 1986.484375 1041.598438 Z M 1943.398438 1081.442188" transform="matrix(.1 0 0 -.1 -190 112.32)" fill="none" stroke-width="8.002" stroke-linecap="round" stroke-linejoin="round" stroke="#000" stroke-miterlimit="10" />
    </g>
    <g id="svg528127907457tikz_00007y" clip-path="url(#svg528127907457tikz_00007l)">
      <path d="M 2.308594 6.292969 L 8.058594 7.347656 L 5.914063 5.636719 L 7.320313 3.285156" />
      <path d="M 1583.085938 570.270313 L 1640.585938 559.723438 L 1619.140625 576.832813 L 1633.203125 600.348438 Z M 1583.085938 570.270313" transform="matrix(.1 0 0 -.1 -156 63.32)" fill="none" stroke-width="7.973" stroke-linecap="round" stroke-linejoin="round" stroke="#000" stroke-miterlimit="10" />
    </g>
    <g clip-path="url(#svg528127907457tikz_00007a)">
      <g clip-path="url(#svg528127907457tikz_00007b)" id="svg528127907457tikz_00007d">
        <path d="M 0.15625 165.414063 L 161.160156 165.414063 L 161.160156 0.714844 L 0.15625 0.714844 Z M 0.15625 165.414063" fill-opacity=".702" />
      </g>
    </g>
    <g id="svg528127907457tikz_00007z" clip-path="url(#svg528127907457tikz_00007m)">
      <path d="M 1.433594 3.6875 L 6.898438 5.753906 L 5.09375 3.6875 L 6.898438 1.625" />
      <g clip-path="url(#svg528127907457tikz_00007n)">
        <path d="M 2054.335938 1196.325 L 2108.984375 1175.660938 L 2090.9375 1196.325 L 2108.984375 1216.95 Z M 2054.335938 1196.325" transform="matrix(.1 0 0 -.1 -204 123.32)" fill="none" stroke-width="7.97" stroke-linecap="round" stroke-linejoin="round" stroke="#000" stroke-miterlimit="10" />
      </g>
    </g>
    <filter id="svg528127907457tikz_00007c" filterUnits="objectBoundingBox" x="0%" y="0%" width="100%" height="100%">
      <feColorMatrix in="SourceGraphic" values="0 0 0 0 1 0 0 0 0 1 0 0 0 0 1 0 0 0 1 0" />
    </filter>
    <mask id="svg528127907457tikz_00007v">
      <g filter="url(#svg528127907457tikz_00007c)">
        <use xlink:href="#svg528127907457tikz_00007d" />
      </g>
    </mask>
  </defs>
  <g clip-path="url(#svg528127907457tikz_00007o)">
    <path d="M 113.109375 188.648438 C 107.078125 192.617188 100.945313 196.53125 94.164063 199 C 84.503906 202.519531 71.984375 204.320313 63.410156 197.679688 C 59.609375 194.734375 56.167969 190.042969 57.609375 185.453125 C 57.78125 184.910156 58.023438 184.375 58.4375 183.988281 C 59.851563 182.683594 62.058594 183.738281 63.84375 184.441406 C 70.183594 186.945313 76.191406 182.933594 81.667969 180.097656 C 87.601563 177.023438 93.351563 173.601563 98.964844 169.957031 C 98.984375 169.945313 99.007813 169.933594 99.027344 169.914063 C 107.441406 164.457031 115.523438 158.515625 123.523438 152.449219 C 126.199219 150.417969 128.871094 148.375 131.546875 146.328125 C 135.253906 143.488281 138.964844 140.644531 142.671875 137.800781 C 146.085938 135.183594 149.503906 132.570313 152.914063 129.953125 C 156.101563 127.511719 159.398438 125.390625 162.734375 123.3125 C 166.035156 121.246094 169.363281 119.226563 172.648438 116.976563 C 173.539063 116.367188 174.519531 115.535156 174.4375 114.457031 C 174.355469 113.371094 173.242188 112.703125 172.265625 112.226563 C 163.519531 107.9375 154.777344 103.652344 146.03125 99.359375 C 151.425781 92.253906 157.054688 85.316406 162.910156 78.570313 C 171.253906 80.378906 181.15625 85.191406 188.289063 89.820313 C 196.082031 94.886719 203.878906 102.140625 204.0625 111.433594 C 204.246094 120.324219 198.320313 127.535156 191.902344 132.988281 C 186.34375 137.714844 180.253906 142.015625 174.230469 146.292969 C 172.101563 147.800781 169.980469 149.316406 167.898438 150.84375 C 150.171875 163.800781 132.035156 176.199219 113.691406 188.265625 C 113.496094 188.394531 113.304688 188.519531 113.109375 188.648438 Z M 113.109375 188.648438" fill="#9ddffc" />
  </g>
  <path d="M143.183594 63.078125C147.933594 57.863281 152.847656 52.804688 157.921875 47.894531 159.03125 46.824219 160.199219 45.679688 160.613281 44.1875 161.222656 41.96875 159.886719 39.53125 157.910156 38.351563 155.933594 37.167969 153.484375 37.035156 151.203125 37.367188 145.738281 38.160156 140.550781 41.816406 138.8125 47.058594 137.074219 52.300781 138.066406 60.992188 143.183594 63.078125zM107.105469 109.71875C108.667969 107.476563 110.230469 105.226563 111.800781 102.984375 114.316406 99.371094 116.839844 95.765625 119.425781 92.207031 119.789063 91.707031 120.160156 91.203125 120.527344 90.707031 122.144531 88.5 123.796875 86.3125 125.46875 84.148438L124.976563 83.773438C119.808594 74.390625 115.402344 64.714844 113.734375 54.039063 113.269531 51.050781 112.996094 48.011719 113.304688 44.996094 114.242188 35.972656 120.429688 28.191406 127.886719 23.015625 143.15625 12.40625 163.261719 14.445313 177 26.8125 178.585938 28.242188 180.070313 29.828125 181.945313 30.867188 185.90625 33.046875 190.882813 32.367188 195.078125 34.078125 200.132813 36.144531 203.367188 41.945313 202.472656 47.324219 201.460938 53.371094 196.097656 57.757813 190.5625 60.390625 185.027344 63.027344 178.933594 64.542969 173.828125 67.941406 170.191406 70.359375 167.222656 73.632813 164.34375 76.917969 163.867188 77.46875 163.382813 78.019531 162.910156 78.570313 157.054688 85.320313 151.425781 92.253906 146.03125 99.359375 145.035156 100.664063 144.054688 101.976563 143.078125 103.292969 137.8125 110.40625 132.777344 117.691406 127.984375 125.128906 126.582031 127.296875 125.199219 129.480469 123.84375 131.675781 121.324219 135.757813 118.863281 139.894531 116.175781 143.867188 114.703125 146.054688 113.164063 148.1875 111.511719 150.242188 106.921875 155.933594 101.480469 160.933594 95.429688 165.03125 94.539063 165.632813 93.644531 166.214844 92.730469 166.777344 85.425781 171.261719 75.6875 174.328125 68.613281 169.492188 64.015625 166.339844 61.855469 160.507813 61.730469 154.941406 61.601563 149.363281 63.210938 143.917969 64.734375 138.558594 65.261719 136.710938 65.789063 134.855469 66.300781 133.003906 68.878906 123.71875 71.28125 114.390625 73.503906 105.015625 74.851563 99.339844 76.136719 93.652344 77.347656 87.941406L77.085938 87.886719C71.089844 85.882813 66.03125 81.214844 63.558594 75.390625 60.917969 69.171875 61.246094 61.925781 63.699219 55.632813 66.15625 49.335938 70.601563 43.953125 75.820313 39.664063 79.996094 36.234375 85.117188 33.339844 90.503906 33.800781 97.269531 34.375 102.632813 40.242188 104.746094 46.6875 106.863281 53.136719 106.390625 60.105469 105.878906 66.871094 105.492188 72.050781 105.085938 77.273438 104.503906 82.46875 103.667969 89.910156 102.460938 97.285156 100.414063 104.402344 99.382813 107.984375 98.132813 111.5 96.613281 114.929688 94.007813 120.796875 90.535156 126.671875 90.789063 133.09375 96.226563 125.300781 101.660156 117.511719 107.105469 109.71875zM174.246094 146.316406C176.746094 159.582031 172.382813 173.957031 162.921875 183.601563 153.464844 193.238281 139.175781 197.871094 125.859375 195.628906 120.941406 194.800781 115.820313 192.804688 113.109375 188.648438 113.304688 188.519531 113.496094 188.394531 113.691406 188.265625 132.039063 176.199219 150.171875 163.800781 167.898438 150.84375 169.980469 149.316406 172.101563 147.800781 174.230469 146.292969zM174.246094 146.316406" fill="#9ddffc" />
  <path d="M162.449219 122.855469L162.734375 123.3125C159.398438 125.390625 156.101563 127.511719 152.914063 129.953125 149.503906 132.570313 146.085938 135.183594 142.671875 137.800781L142.453125 137.523438C139.867188 131.472656 134.351563 126.753906 127.984375 125.128906 132.777344 117.691406 137.8125 110.40625 143.078125 103.292969L143.214844 103.394531C147.859375 106.503906 152.21875 110.050781 156.203125 113.964844 158.8125 116.527344 161.332031 119.371094 162.449219 122.855469zM123.0625 151.84375L123.523438 152.449219C115.523438 158.515625 107.441406 164.457031 99.027344 169.914063L98.839844 169.632813C97.929688 168.042969 96.828125 166.566406 95.570313 165.230469L95.429688 165.03125C101.480469 160.933594 106.921875 155.933594 111.511719 150.242188 113.164063 148.1875 114.703125 146.054688 116.175781 143.867188 118.824219 146.191406 121.144531 148.878906 123.0625 151.84375zM120.527344 90.707031C120.160156 91.203125 119.789063 91.707031 119.425781 92.207031 116.839844 95.765625 114.316406 99.371094 111.800781 102.984375 110.230469 105.226563 108.667969 107.476563 107.105469 109.71875 104.527344 108.449219 102.230469 106.632813 100.414063 104.402344 102.460938 97.285156 103.667969 89.910156 104.503906 82.46875L104.742188 82.496094C106.40625 85.046875 109.425781 86.300781 112.253906 87.414063 114.972656 88.480469 117.679688 89.546875 120.394531 90.609375zM73.503906 105.015625C71.28125 114.390625 68.878906 123.71875 66.300781 133.003906 57.851563 121.148438 44.601563 113.382813 36.101563 101.574219 33.101563 97.40625 30.75 92.785156 29.125 87.917969 27.65625 83.519531 26.785156 78.925781 26.554688 74.292969 26.359375 70.292969 26.675781 66.125 28.585938 62.597656 29.308594 61.269531 30.292969 60.050781 31.464844 59.078125 33.390625 57.457031 35.804688 56.484375 38.289063 56.699219 43.992188 57.203125 47.378906 63.144531 49.699219 68.375 55.695313 81.835938 61.71875 96.171875 73.503906 105.015625zM73.503906 105.015625" fill="#9ddffc" />
  <path d="M 31.453125 59.058594 L 31.464844 59.078125 C 30.296875 60.050781 29.308594 61.269531 28.585938 62.597656 C 26.675781 66.125 26.359375 70.292969 26.554688 74.292969 C 26.785156 78.925781 27.65625 83.519531 29.125 87.917969 L 29.023438 87.953125 C 27.664063 88.050781 26.960938 89.566406 26.421875 90.816406 C 25.003906 94.082031 22.847656 97.027344 20.15625 99.355469 C 19.324219 100.074219 18.203125 100.773438 17.191406 100.335938 C 15.882813 99.773438 15.949219 97.886719 16.390625 96.53125 C 17.609375 92.839844 19.980469 89.578125 20.972656 85.820313 C 22.253906 81.003906 21.15625 75.832031 22.191406 70.960938 C 23.269531 65.878906 26.785156 61.363281 31.453125 59.058594 Z M 31.453125 59.058594" fill="#9ddffc" />
  <g clip-path="url(#svg528127907457tikz_00007p)">
    <path d="M 1460.195313 1189.645313 C 1460.234375 1189.645313 1460.234375 1189.60625 1460.3125 1189.60625 C 1547.773438 1146.676563 1635.195313 1103.825 1722.65625 1060.934375 C 1732.421875 1056.16875 1743.554688 1049.489063 1744.375 1038.629688 C 1745.195313 1027.848438 1735.390625 1019.528125 1726.484375 1013.434375 C 1693.632813 990.934375 1660.351563 970.739063 1627.34375 950.075 C 1593.984375 929.29375 1561.015625 908.082813 1529.140625 883.66875 C 1495.039063 857.496875 1460.859375 831.364063 1426.71875 805.192188 C 1389.648438 776.754688 1352.539063 748.317188 1315.46875 719.91875 C 1288.710938 699.45 1261.992188 679.020313 1235.234375 658.707813 C 1155.234375 598.04375 1074.453125 538.629688 990.273438 484.059375 C 990.078125 483.864063 989.84375 483.746875 989.648438 483.629688 C 933.515625 447.184375 876.015625 412.965625 816.679688 382.223438 C 761.914063 353.864063 701.835938 313.746875 638.4375 338.785938 C 620.585938 345.817188 598.515625 356.364063 584.414063 343.317188 C 580.234375 339.45 577.8125 334.098438 576.09375 328.66875 C 561.679688 282.770313 596.09375 235.85625 634.101563 206.403125 C 719.84375 139.996875 845.039063 158.004688 941.640625 193.2 C 1009.453125 217.8875 1070.78125 257.028125 1131.09375 296.715625 C 1133.046875 298.004688 1134.960938 299.254688 1136.914063 300.54375 C 1320.390625 421.207813 1501.71875 545.192188 1678.984375 674.7625 C 1699.804688 690.035938 1721.015625 705.192188 1742.304688 720.270313 C 1802.539063 763.04375 1863.4375 806.051563 1919.023438 853.317188 C 1983.203125 907.848438 2042.460938 979.957813 2040.625 1068.864063 C 2038.789063 1161.79375 1960.820313 1234.332813 1882.890625 1284.996875 C 1811.5625 1331.285938 1712.539063 1379.410938 1629.101563 1397.496875" transform="matrix(.1 0 0 -.1 0 218.32)" fill="none" stroke-width="7.379" stroke="#000" stroke-miterlimit="10" />
  </g>
  <g clip-path="url(#svg528127907457tikz_00007q)">
    <path d="M 830.273438 1598.629688 C 813.242188 1499.957813 794.335938 1401.6375 773.476563 1303.785938 C 761.367188 1246.676563 748.515625 1189.801563 735.039063 1133.04375 C 712.8125 1039.29375 688.789063 946.0125 663.007813 853.160938 C 657.890625 834.645313 652.617188 816.090625 647.34375 797.614063 C 632.109375 744.020313 616.015625 689.567188 617.304688 633.785938 C 618.554688 578.082813 640.15625 519.801563 686.132813 488.278125 C 756.875 439.91875 854.257813 470.582813 927.304688 515.426563 C 936.445313 521.051563 945.390625 526.871875 954.296875 532.8875 C 1014.804688 573.864063 1069.21875 623.864063 1115.117188 680.778125 C 1131.640625 701.325 1147.03125 722.653125 1161.757813 744.528125 C 1188.632813 784.254688 1213.242188 825.621875 1238.4375 866.442188 C 1251.992188 888.395313 1265.820313 910.23125 1279.84375 931.910938 C 1327.773438 1006.285938 1378.125 1079.1375 1430.78125 1150.270313 C 1440.546875 1163.395313 1450.351563 1176.559375 1460.3125 1189.60625 C 1514.257813 1260.660938 1570.546875 1329.996875 1629.101563 1397.457813 C 1633.828125 1402.965625 1638.671875 1408.5125 1643.4375 1414.020313 C 1672.226563 1446.871875 1701.914063 1479.60625 1738.28125 1503.785938 C 1789.335938 1537.770313 1850.273438 1552.926563 1905.625 1579.29375 C 1960.976563 1605.621875 2014.609375 1649.489063 2024.726563 1709.957813 C 2033.671875 1763.746875 2001.328125 1821.754688 1950.78125 1842.41875 C 1908.828125 1859.528125 1859.0625 1852.73125 1819.453125 1874.528125 C 1800.703125 1884.91875 1785.859375 1900.778125 1770 1915.075 C 1632.617188 2038.746875 1431.5625 2059.1375 1278.867188 1953.04375 C 1204.296875 1901.285938 1142.421875 1823.473438 1133.046875 1733.239063 C 1129.960938 1703.082813 1132.695313 1672.692188 1137.34375 1642.809375 C 1154.023438 1536.051563 1198.085938 1439.29375 1249.765625 1345.465625" transform="matrix(.1 0 0 -.1 0 218.32)" fill="none" stroke-width="7.379" stroke="#000" stroke-miterlimit="10" />
  </g>
  <path d="M 1431.835938 1552.41875 C 1369.921875 1484.60625 1310.859375 1414.29375 1254.6875 1341.715625 C 1237.96875 1320.075 1221.445313 1298.2 1205.273438 1276.129688 C 1201.601563 1271.16875 1197.890625 1266.129688 1194.257813 1261.129688 C 1168.398438 1225.54375 1143.164063 1189.489063 1118.007813 1153.35625 C 1102.304688 1130.934375 1086.679688 1108.434375 1071.054688 1086.0125 C 1016.601563 1008.082813 962.265625 930.192188 907.890625 852.2625 C 905.351563 916.442188 940.078125 975.23125 966.132813 1033.903125 C 981.328125 1068.2 993.828125 1103.35625 1004.140625 1139.176563 C 1024.609375 1210.348438 1036.679688 1284.098438 1045.039063 1358.5125 C 1050.859375 1410.465625 1054.921875 1462.692188 1058.789063 1514.489063 C 1063.867188 1582.145313 1068.632813 1651.832813 1047.460938 1716.325 C 1026.328125 1780.778125 972.695313 1839.45 905.039063 1845.192188 C 851.171875 1849.801563 799.960938 1820.85625 758.203125 1786.559375 C 706.015625 1743.66875 661.5625 1689.840625 636.992188 1626.871875 C 612.460938 1563.942188 609.179688 1491.48125 635.585938 1429.29375 C 660.3125 1371.051563 710.898438 1324.371875 770.859375 1304.332813" transform="matrix(.1 0 0 -.1 0 218.32)" fill="none" stroke-width="7.379" stroke="#000" stroke-miterlimit="10" />
  <path d="M1431.835938 1552.41875C1380.664063 1573.278125 1370.742188 1660.192188 1388.125 1712.614063 1405.507813 1765.035938 1457.382813 1801.598438 1512.03125 1809.528125 1534.84375 1812.848438 1559.335938 1811.520313 1579.101563 1799.684375 1598.867188 1787.8875 1612.226563 1763.5125 1606.132813 1741.325 1601.992188 1726.403125 1590.3125 1714.957813 1579.21875 1704.254688 1528.476563 1655.153125 1479.335938 1604.567188 1431.835938 1552.41875zM664.921875 850.465625C664.257813 851.364063 663.671875 852.2625 663.007813 853.160938 578.515625 971.715625 446.015625 1049.371875 361.015625 1167.457813 331.015625 1209.098438 307.5 1255.348438 291.25 1304.020313 276.5625 1348.004688 267.851563 1393.942188 265.546875 1440.270313 263.59375 1480.270313 266.757813 1521.95 285.859375 1557.223438 293.085938 1570.504688 302.96875 1582.692188 314.648438 1592.41875 333.90625 1608.629688 358.046875 1618.35625 382.890625 1616.207813 439.921875 1611.16875 473.789063 1551.754688 496.992188 1499.45 556.953125 1364.840625 617.1875 1221.48125 735.039063 1133.04375 735.3125 1132.8875 735.585938 1132.653125 735.859375 1132.457813" transform="matrix(.1 0 0 -.1 0 218.32)" fill="none" stroke-width="7.379" stroke="#000" stroke-miterlimit="10" />
  <g clip-path="url(#svg528127907457tikz_00007r)">
    <path d="M 314.53125 1592.614063 C 267.851563 1569.567188 232.695313 1524.410938 221.914063 1473.590625 C 211.5625 1424.879688 222.539063 1373.160938 209.726563 1324.996875 C 199.804688 1287.41875 176.09375 1254.801563 163.90625 1217.8875 C 159.492188 1204.332813 158.828125 1185.465625 171.914063 1179.840625 C 182.03125 1175.465625 193.242188 1182.457813 201.5625 1189.645313 C 228.476563 1212.926563 250.039063 1242.379688 264.21875 1275.035938 C 269.609375 1287.535938 276.640625 1302.692188 290.234375 1303.66875" transform="matrix(.1 0 0 -.1 0 218.32)" fill="none" stroke-width="7.379" stroke="#000" stroke-miterlimit="10" />
  </g>
  <path d="M1047.421875 1358.239063C1064.0625 1332.73125 1094.257813 1320.192188 1122.539063 1309.059375 1149.726563 1298.395313 1176.796875 1287.73125 1203.945313 1277.10625M1432.148438 1149.254688C1478.59375 1118.160938 1522.1875 1082.692188 1562.03125 1043.551563 1588.125 1017.926563 1613.320313 989.489063 1624.492188 954.645313M1003.945313 1139.410938C1004.023438 1139.371875 1004.0625 1139.254688 1004.140625 1139.176563 1022.304688 1116.871875 1045.273438 1098.707813 1071.054688 1086.0125 1071.171875 1086.0125 1071.210938 1085.973438 1071.328125 1085.895313M1278.710938 932.223438C1279.101563 932.145313 1279.453125 932.028125 1279.84375 931.910938 1343.515625 915.660938 1398.671875 868.434375 1424.53125 807.965625" transform="matrix(.1 0 0 -.1 0 218.32)" fill="none" stroke-width="7.379" stroke="#000" stroke-miterlimit="10" />
  <g clip-path="url(#svg528127907457tikz_00007s)">
    <path d="M 1742.460938 720.035938 C 1767.460938 587.379688 1723.828125 443.629688 1629.21875 347.184375 C 1534.648438 250.817188 1391.757813 204.489063 1258.59375 226.910938 C 1209.414063 235.192188 1158.203125 255.153125 1131.09375 296.715625 C 1130.507813 297.614063 1129.882813 298.551563 1129.335938 299.45" transform="matrix(.1 0 0 -.1 0 218.32)" fill="none" stroke-width="7.379" stroke="#000" stroke-miterlimit="10" />
  </g>
  <path d="M988.398438 486.871875C979.296875 502.770313 968.28125 517.535938 955.703125 530.895313M1230.625 664.7625C1211.445313 694.410938 1188.242188 721.285938 1161.757813 744.528125 1161.484375 744.801563 1161.210938 745.075 1160.9375 745.309375" transform="matrix(.1 0 0 -.1 0 218.32)" fill="none" stroke-width="7.379" stroke="#000" stroke-miterlimit="10" />
  <path d="M 69.214844 119.121094 C 68.292969 120.460938 66.34375 120.605469 64.964844 119.957031 C 64.265625 119.628906 63.648438 119.085938 63.367188 118.355469 C 63.027344 117.453125 63.140625 116.398438 63.261719 115.464844 C 63.484375 113.777344 64.179688 111.511719 62.917969 110.0625 C 61.738281 108.707031 59.933594 109.085938 58.511719 109.773438 C 57.753906 110.140625 57.035156 110.589844 56.289063 110.984375 C 55.667969 111.316406 54.972656 111.671875 54.253906 111.699219 C 51.667969 111.796875 52.082031 107.769531 52.429688 106.195313 C 53.046875 103.414063 54.457031 100.691406 54.164063 97.773438 C 53.945313 95.554688 52.449219 93.253906 50.101563 92.894531 C 48.910156 92.710938 47.859375 93.183594 46.917969 93.882813 C 46.011719 94.558594 45.109375 95.445313 43.914063 95.527344 C 43.394531 95.5625 42.875 95.421875 42.558594 94.980469 C 42.21875 94.507813 42.1875 93.867188 42.191406 93.308594 C 42.203125 91.953125 42.421875 90.601563 42.796875 89.304688 C 43.167969 88.035156 43.699219 86.824219 44.378906 85.695313 C 45.054688 84.574219 45.910156 83.589844 46.667969 82.527344 C 47.917969 80.777344 48.808594 78.46875 47.660156 76.421875 C 47.117188 75.457031 46.148438 74.898438 45.050781 74.835938 C 43.828125 74.765625 42.636719 75.28125 41.617188 75.914063 C 39.6875 77.117188 37.953125 79.019531 35.5 78.953125 C 34.339844 78.921875 33.417969 78.285156 33.023438 77.183594 C 32.605469 76.019531 32.53125 74.6875 32.539063 73.460938 C 32.539063 73.339844 32.550781 73.222656 32.550781 73.105469 C 34.269531 72.785156 35.9375 72.214844 37.488281 71.402344 C 39.648438 70.269531 41.789063 68.628906 43.167969 66.589844 C 43.824219 65.617188 44.367188 64.414063 44.28125 63.214844 C 44.207031 62.164063 43.65625 61.160156 42.738281 60.625 C 40.992188 59.609375 38.699219 60.449219 37.179688 61.503906 C 35.21875 62.867188 33.882813 65.105469 32.992188 67.28125 C 32.25 69.089844 31.828125 71.039063 31.757813 73 C 31.269531 73.074219 30.777344 73.136719 30.285156 73.171875 C 30.152344 73.179688 30.152344 73.382813 30.285156 73.375 C 30.777344 73.351563 31.265625 73.300781 31.753906 73.230469 C 31.742188 73.796875 31.753906 74.359375 31.800781 74.925781 C 31.90625 76.164063 32.066406 77.546875 32.867188 78.550781 C 33.554688 79.410156 34.628906 79.785156 35.703125 79.765625 C 36.839844 79.746094 37.96875 79.359375 38.933594 78.773438 C 40.046875 78.105469 41.027344 77.234375 42.136719 76.558594 C 43.207031 75.90625 44.632813 75.320313 45.871094 75.84375 C 46.835938 76.253906 47.292969 77.289063 47.355469 78.285156 C 47.519531 80.90625 45.253906 82.816406 43.941406 84.832031 C 42.441406 87.144531 41.558594 89.851563 41.390625 92.601563 C 41.316406 93.789063 41.328125 95.21875 42.40625 95.976563 C 43.34375 96.632813 44.625 96.363281 45.570313 95.871094 C 46.683594 95.285156 47.515625 94.195313 48.738281 93.808594 C 49.859375 93.453125 51.007813 93.90625 51.835938 94.679688 C 54.023438 96.71875 53.410156 99.890625 52.644531 102.4375 C 52.210938 103.886719 51.695313 105.320313 51.460938 106.820313 C 51.246094 108.191406 51.207031 109.71875 51.816406 110.996094 C 52.222656 111.851563 53.011719 112.457031 53.960938 112.53125 C 54.734375 112.59375 55.492188 112.304688 56.179688 111.980469 C 56.976563 111.605469 57.722656 111.132813 58.5 110.722656 C 59.175781 110.367188 59.921875 110 60.699219 109.96875 C 61.480469 109.941406 62.25 110.34375 62.574219 111.070313 C 62.949219 111.914063 62.78125 112.957031 62.65625 113.835938 C 62.382813 115.738281 61.820313 118.015625 63.171875 119.648438 C 64.273438 120.976563 66.296875 121.476563 67.925781 121 C 68.757813 120.761719 69.457031 120.261719 69.945313 119.546875 C 70.257813 119.097656 69.523438 118.671875 69.214844 119.121094 Z M 34.316406 66.25 C 35.34375 64.257813 36.738281 62.382813 38.828125 61.433594 C 39.648438 61.058594 40.613281 60.808594 41.515625 60.964844 C 42.457031 61.125 43.222656 61.789063 43.492188 62.710938 C 43.835938 63.882813 43.371094 65.148438 42.777344 66.152344 C 42.152344 67.214844 41.277344 68.136719 40.359375 68.953125 C 38.507813 70.59375 36.28125 71.8125 33.914063 72.515625 C 33.46875 72.648438 33.015625 72.757813 32.5625 72.851563 C 32.664063 70.558594 33.265625 68.289063 34.316406 66.25 Z M 34.316406 66.25" />
  <path d="M188.035156 41.429688C186.644531 39.714844 184.511719 38.785156 182.355469 38.542969 179.507813 38.222656 176.6875 38.914063 173.847656 38.96875 172.640625 38.992188 171.296875 38.886719 170.351563 38.050781 169.753906 37.519531 169.378906 36.765625 169.085938 36.03125 168.503906 34.550781 168.238281 32.839844 167.246094 31.554688 166.15625 30.132813 164.375 30.058594 162.890625 30.921875 161.296875 31.851563 159.691406 33.769531 157.664063 32.757813 155.914063 31.878906 154.972656 29.691406 154.433594 27.921875 153.839844 25.980469 153.453125 24.019531 152.320313 22.289063 151.359375 20.824219 149.886719 19.648438 148.042969 19.839844 146.152344 20.03125 144.929688 21.492188 144.230469 23.148438 143.449219 25.007813 143.390625 26.976563 142.902344 28.902344 142.488281 30.546875 141.648438 32.792969 139.855469 33.355469 137.578125 34.070313 135.910156 31.5 134.132813 30.566406 132.328125 29.617188 130.140625 29.464844 128.195313 30.050781 126.289063 30.628906 124.109375 32.109375 123.652344 34.179688 123.171875 36.34375 124.988281 38 126.753906 38.863281 128.5625 39.75 131.175781 40.074219 132.226563 42.015625 133.554688 44.464844 131.257813 46.980469 129.425781 48.324219 127.375 49.828125 125.324219 51.183594 123.605469 53.085938 122.742188 54.035156 121.960938 55.054688 121.269531 56.132813 120.632813 57.121094 119.984375 58.257813 120.136719 59.476563 120.375 61.375 122.289063 62.128906 123.988281 62.140625 126.3125 62.160156 128.292969 60.640625 130.59375 60.617188 133.109375 60.597656 133.921875 62.992188 133.402344 65.097656 132.839844 67.378906 130.949219 68.882813 129.371094 70.488281 127.871094 72.011719 126.621094 73.691406 126.488281 75.898438 126.386719 77.605469 127.042969 79.4375 128.703125 80.164063 129.289063 80.417969 129.800781 79.554688 129.210938 79.296875 127.457031 78.53125 127.230469 76.40625 127.6875 74.753906 128.285156 72.605469 130.195313 71.125 131.691406 69.601563 133.125 68.140625 134.296875 66.539063 134.53125 64.453125 134.730469 62.703125 134.136719 60.816406 132.453125 60.007813 130.234375 58.941406 127.914063 60.273438 125.78125 60.886719 124.40625 61.28125 121.839844 61.433594 121.226563 59.742188 120.800781 58.566406 121.691406 57.316406 122.308594 56.382813 123.007813 55.328125 123.796875 54.339844 124.667969 53.421875 125.515625 52.53125 126.433594 51.703125 127.414063 50.96875 128.402344 50.230469 129.449219 49.582031 130.421875 48.828125 132.121094 47.511719 133.644531 45.65625 133.59375 43.386719 133.546875 41.203125 131.878906 39.878906 130.023438 39.085938 128.222656 38.316406 125.765625 37.8125 124.816406 35.871094 123.789063 33.765625 126.332031 31.792969 128.066406 31.164063 129.964844 30.476563 132.160156 30.566406 133.914063 31.609375 135.667969 32.652344 137.050781 34.644531 139.316406 34.480469 141.042969 34.359375 142.273438 33.023438 143.011719 31.558594 143.890625 29.8125 144.054688 27.96875 144.429688 26.085938 144.757813 24.425781 145.289063 22.339844 146.789063 21.335938 148.363281 20.277344 150.132813 21.050781 151.179688 22.433594 152.355469 23.988281 152.816406 25.878906 153.3125 27.722656 153.792969 29.507813 154.578125 31.363281 155.894531 32.691406 157.183594 33.996094 158.941406 34.4375 160.625 33.644531 162.097656 32.949219 163.679688 30.828125 165.492188 31.453125 166.839844 31.921875 167.242188 33.746094 167.628906 34.941406 168.117188 36.433594 168.652344 38.085938 169.976563 39.050781 171.886719 40.445313 174.636719 39.992188 176.820313 39.761719 179.375 39.496094 182.164063 39.097656 184.605469 40.140625 186.414063 40.914063 188.226563 42.53125 188.273438 44.636719 188.300781 45.953125 187.574219 47.109375 186.535156 47.851563 186.46875 46.265625 185.753906 44.640625 184.21875 44.023438 182.683594 43.398438 180.515625 44.144531 180.042969 45.832031 179.441406 47.996094 181.765625 49.574219 183.644531 49.707031 184.199219 49.746094 184.757813 49.675781 185.300781 49.53125 184.820313 51.058594 183.699219 52.4375 182.730469 53.632813 181.304688 55.386719 179.59375 57.269531 177.304688 57.804688 175.324219 58.269531 173.167969 57.644531 172.246094 55.734375 171.796875 54.804688 171.414063 53.925781 170.515625 53.339844 169.796875 52.875 168.902344 52.6875 168.054688 52.722656 166.191406 52.804688 164.558594 53.832031 163.628906 55.4375 162.496094 57.390625 162.441406 59.746094 162.695313 61.929688 162.796875 62.828125 163.003906 64.257813 161.96875 64.714844 161.347656 64.992188 160.574219 64.632813 160.011719 64.371094 158.535156 63.679688 156.984375 62.566406 155.269531 62.796875 153.179688 63.078125 151.914063 65.347656 151.257813 67.136719 150.5625 69.027344 150.429688 71.105469 150.777344 73.085938 151.0625 74.691406 151.703125 76.207031 152.636719 77.53125 147.757813 77.253906 142.882813 76.941406 138.003906 76.636719 137.769531 76.621094 137.5 76.867188 137.527344 77.113281 138.148438 82.300781 139.804688 87.308594 142.402344 91.835938 137.078125 93.0625 131.628906 93.632813 126.160156 93.523438 125.828125 93.519531 125.660156 93.832031 125.707031 94.125 126.558594 99.355469 128.222656 104.421875 130.605469 109.15625 125.21875 111.074219 119.34375 111.371094 113.792969 109.964844 113.472656 109.882813 113.097656 110.1875 113.222656 110.53125 115.214844 116.003906 117.210938 121.472656 119.203125 126.9375 113.515625 127.832031 107.734375 127.976563 102.007813 127.371094 101.714844 127.335938 101.539063 127.667969 101.59375 127.910156 102.621094 132.34375 103.65625 136.773438 104.738281 141.195313 104.664063 141.273438 104.621094 141.378906 104.628906 141.519531 104.742188 143.210938 103.289063 144.230469 101.804688 144.617188 99.890625 145.113281 98.160156 144.480469 96.464844 143.597656 94.609375 142.632813 92.761719 141.371094 90.652344 141.042969 89.179688 140.8125 87.210938 141.171875 86.632813 142.753906 86.238281 143.828125 86.6875 144.988281 87.054688 146.003906 87.46875 147.140625 87.949219 148.246094 88.390625 149.367188 89.183594 151.359375 89.96875 153.53125 89.742188 155.710938 89.570313 157.40625 88.785156 159.226563 87.390625 160.269531 85.835938 161.425781 83.894531 161.148438 82.386719 160.0625 82.121094 159.871094 81.875 159.660156 81.632813 159.4375 82.21875 158.179688 82.621094 156.867188 82.796875 155.804688 83.171875 153.53125 83.046875 151.175781 82.394531 148.964844 82.078125 147.894531 81.640625 146.851563 81.085938 145.886719 80.597656 145.03125 79.957031 143.820313 78.890625 143.632813 77.78125 143.4375 76.84375 144.347656 76.351563 145.246094 75.808594 146.238281 75.539063 147.378906 75.496094 148.507813 75.398438 150.976563 76.351563 153.40625 77.527344 155.535156 78.234375 156.820313 79.234375 158.371094 80.445313 159.644531 79.8125 160.847656 78.949219 161.9375 77.761719 162.519531 75.652344 163.550781 73.652344 161.550781 72.351563 160.082031 70.992188 158.542969 69.96875 156.695313 69.355469 154.738281 68.121094 150.785156 68.652344 146.542969 70.8125 143.011719 71.78125 141.425781 73.054688 140.011719 74.546875 138.898438 76.246094 139.851563 78.34375 140.128906 80.222656 139.695313 81.53125 139.386719 82.738281 138.710938 83.652344 137.71875 83.84375 137.507813 83.863281 137.171875 83.652344 136.964844 81.085938 134.492188 77.332031 135.726563 74.527344 137.628906 72.335938 136.035156 71.773438 133.152344 72.828125 130.632813 73.386719 129.300781 74.359375 128.121094 75.628906 127.425781 77.351563 126.480469 79.355469 126.785156 81.234375 126.78125 82.890625 126.78125 84.640625 126.476563 85.917969 125.339844 87.074219 124.308594 87.441406 122.675781 86.847656 121.25 85.515625 118.050781 81.789063 117.390625 79.089844 115.859375 77.824219 115.140625 76.445313 114.085938 76.3125 112.515625 76.1875 110.992188 77.261719 109.886719 78.53125 109.238281 81.507813 107.71875 84.90625 108.675781 88.058594 107.964844 89.453125 107.652344 91.25 106.894531 91.710938 105.402344 92.179688 103.871094 91.285156 102.371094 90.230469 101.320313 88.996094 100.097656 87.464844 99.460938 86 98.582031 84.726563 97.816406 83.039063 96.632813 82.933594 94.996094 82.824219 93.367188 84.277344 92.503906 85.675781 92.226563 87.195313 91.929688 88.695313 92.203125 90.214844 92.300781 91.691406 92.394531 93.34375 92.390625 94.652344 91.605469 95.945313 90.828125 96.609375 89.355469 96.339844 87.875 95.691406 84.304688 91.851563 83.003906 89.351563 81.011719 88.109375 80.023438 87.023438 78.703125 87.152344 77.023438 87.269531 75.484375 88.429688 74.3125 89.597656 73.425781 90.84375 72.480469 92.230469 71.738281 93.527344 70.867188 94.988281 69.894531 96.304688 68.652344 97.183594 67.117188 98.753906 64.390625 98.609375 60.503906 95.910156 58.511719 94.558594 57.511719 92.847656 57.460938 91.324219 56.863281 89.476563 56.144531 88.902344 54.410156 89.277344 52.5625 89.984375 49.070313 93.824219 45.886719 92.382813 42.089844 91.242188 39.082031 87.691406 37.878906 84.734375 38.355469 81.878906 38.8125 79.207031 40.726563 78.078125 43.421875 77.570313 44.628906 77.378906 45.925781 77.445313 47.214844 77.082031 47.273438 76.71875 47.421875 76.367188 47.6875 75.257813 48.53125 74.347656 49.761719 73.558594 50.894531 72.027344 53.105469 70.742188 55.773438 70.398438 58.460938 70.328125 59.019531 70.320313 59.636719 70.394531 60.25 68.632813 61.445313 67.277344 63.335938 66.722656 65.359375 66.066406 67.773438 66.648438 70.34375 68.238281 72.269531 69.089844 73.300781 70.253906 74.089844 71.542969 74.453125 72.140625 74.621094 72.820313 74.703125 73.464844 74.851563 72.933594 77.042969 72.960938 79.363281 73.589844 81.546875 73.648438 81.753906 73.863281 81.867188 74.070313 81.816406 77.101563 81.078125 77.871094 76.324219 75.214844 74.671875 74.960938 74.511719 74.6875 74.390625 74.40625 74.296875 74.511719 73.957031 74.628906 73.621094 74.761719 73.289063 75.257813 72.058594 75.972656 70.773438 76.953125 69.855469 77.472656 69.367188 78.203125 68.898438 78.949219 69.019531 79.660156 69.136719 80.359375 69.75 80.203125 70.523438 80.136719 70.863281 80.640625 71.007813 80.730469 70.664063 81.089844 69.265625 79.625 68.15625 78.320313 68.324219 76.707031 68.535156 75.59375 70.117188 74.835938 71.417969 74.34375 72.261719 73.960938 73.164063 73.675781 74.09375 73.035156 73.953125 72.378906 73.867188 71.753906 73.683594 70.707031 73.375 69.789063 72.746094 69.054688 71.941406 67.492188 70.230469 66.921875 67.808594 67.527344 65.582031 67.996094 63.855469 69.113281 62.242188 70.570313 61.148438 70.917969 62.417969 71.703125 63.496094 73.152344 63.679688 74.753906 63.886719 77.019531 62.710938 76.445313 60.800781 75.804688 58.691406 72.992188 58.882813 71.414063 59.648438 71.320313 59.691406 71.234375 59.75 71.144531 59.796875 71.027344 57.917969 71.828125 55.882813 72.578125 54.28125 73.175781 52.996094 73.910156 51.773438 74.765625 50.644531 75.207031 50.066406 75.679688 49.515625 76.183594 48.992188 76.566406 48.59375 76.988281 48.152344 77.519531 48.023438 77.730469 49.554688 78.300781 51.050781 79.152344 52.335938 80.011719 53.632813 81.144531 54.722656 82.484375 55.503906 82.753906 55.664063 83.121094 55.464844 83.113281 55.144531 83.054688 52.421875 81.839844 49.625 79.675781 47.910156 79.234375 47.5625 78.761719 47.324219 78.277344 47.230469 78.265625 47.050781 78.257813 46.875 78.257813 46.695313 78.269531 43.476563 80.296875 40.730469 83.289063 39.601563 86.15625 38.519531 90.304688 39.105469 91.578125 42.3125 92.375 44.3125 91.265625 46.410156 90.304688 48.128906 89.457031 49.644531 88.609375 51.144531 88.378906 52.894531 88.183594 54.414063 88.542969 55.984375 89.796875 56.960938 91.121094 57.992188 92.863281 58.035156 94.378906 58.621094 95.980469 59.242188 96.984375 60.714844 97.292969 62.371094 97.621094 64.132813 97.0625 65.890625 96.054688 67.339844 94.097656 70.152344 90.738281 71.199219 88.269531 73.425781 87.257813 74.335938 86.445313 75.488281 86.300781 76.871094 86.148438 78.355469 86.796875 79.71875 87.800781 80.773438 90.105469 83.191406 94.203125 84.105469 95.359375 87.53125 95.925781 89.210938 94.996094 90.75 93.335938 91.234375 91.804688 91.679688 90.199219 91.421875 88.652344 91.226563 86.121094 90.910156 82.273438 91.320313 81.945313 94.535156 81.796875 96.042969 82.757813 97.347656 83.855469 98.277344 85.144531 99.367188 86.683594 99.960938 88.082031 100.871094 89.324219 101.679688 91.074219 103.140625 90.824219 104.820313 90.578125 106.480469 88.167969 107.015625 86.792969 107.164063 85.144531 107.347656 83.484375 107.175781 81.835938 107.304688 80.367188 107.417969 78.863281 107.78125 77.589844 108.546875 76.429688 109.238281 75.484375 110.304688 75.28125 111.675781 75.066406 113.121094 75.671875 114.46875 76.707031 115.460938 79.082031 117.738281 82.683594 117.96875 84.96875 120.359375 86.078125 121.519531 86.554688 123.226563 85.277344 124.46875 83.949219 125.757813 81.921875 125.738281 80.203125 125.6875 78.417969 125.640625 76.621094 125.636719 75.023438 126.535156 73.808594 127.222656 72.820313 128.308594 72.167969 129.535156 70.847656 132.03125 70.847656 135.195313 72.714844 137.414063 72.984375 137.738281 73.296875 138.019531 73.625 138.285156 73.121094 138.675781 72.664063 139.082031 72.265625 139.476563 69.066406 142.664063 67.28125 147.207031 67.695313 151.726563 68.101563 156.125 70.46875 160.8125 74.320313 163.179688 77.289063 165.007813 79.671875 162.988281 81.164063 160.34375 82.929688 161.902344 85.070313 162.742188 87.398438 161.464844 89.074219 160.539063 90.132813 158.707031 90.558594 156.886719 91.097656 154.597656 90.546875 152.285156 89.753906 150.121094 89.289063 148.851563 88.738281 147.613281 88.253906 146.351563 87.859375 145.328125 86.957031 143.609375 87.859375 142.640625 88.5 141.953125 89.671875 141.886719 90.539063 142.035156 91.800781 142.25 92.976563 142.851563 94.089844 143.449219 95.988281 144.46875 97.964844 145.761719 100.191406 145.804688 101.921875 145.835938 103.878906 145.214844 104.953125 143.789063 105.261719 143.382813 105.453125 142.917969 105.550781 142.429688 105.636719 142.355469 105.6875 142.246094 105.65625 142.105469 105.644531 142.042969 105.628906 141.980469 105.617188 141.914063 105.621094 141.785156 105.632813 141.65625 105.625 141.519531 105.613281 141.367188 105.546875 141.25 105.449219 141.171875 104.519531 136.863281 103.539063 132.570313 102.554688 128.273438 108.347656 128.855469 114.191406 128.675781 119.9375 127.738281 120.164063 127.699219 120.328125 127.394531 120.253906 127.179688 118.300781 121.804688 116.347656 116.429688 114.394531 111.054688 120.027344 112.316406 125.976563 111.914063 131.382813 109.871094 131.671875 109.757813 131.8125 109.46875 131.664063 109.183594 129.273438 104.558594 127.621094 99.59375 126.726563 94.472656 132.289063 94.539063 137.84375 93.914063 143.253906 92.617188 143.554688 92.546875 143.691406 92.175781 143.539063 91.921875 140.929688 87.546875 139.230469 82.667969 138.554688 77.621094 143.601563 77.9375 148.652344 78.238281 153.695313 78.589844 154.15625 78.621094 154.308594 78.039063 154.050781 77.738281 151.125 74.394531 150.753906 69.019531 153.308594 65.355469 153.960938 64.425781 154.875 63.648438 156.070313 63.808594 156.96875 63.929688 157.796875 64.390625 158.585938 64.796875 159.894531 65.464844 161.652344 66.449219 162.96875 65.253906 163.773438 64.523438 163.855469 63.410156 163.765625 62.390625 163.65625 61.21875 163.519531 60.070313 163.632813 58.890625 163.84375 56.652344 164.949219 54.398438 167.296875 53.847656 168.171875 53.644531 169.164063 53.699219 169.941406 54.183594 170.9375 54.804688 171.117188 55.996094 171.738281 56.910156 172.875 58.578125 175.015625 59.160156 176.941406 58.898438 179.277344 58.582031 181.164063 56.980469 182.675781 55.269531 184.214844 53.519531 186.019531 51.464844 186.453125 49.101563 186.453125 49.097656 186.453125 49.089844 186.453125 49.085938 187.375 48.605469 188.171875 47.882813 188.679688 46.996094 189.726563 45.175781 189.320313 43.011719 188.035156 41.429688zM80.378906 136.699219C81.144531 136.730469 81.859375 136.953125 82.472656 137.378906 80.605469 139.011719 77.773438 139.246094 75.535156 138.214844 76.988281 137.308594 78.648438 136.632813 80.378906 136.699219zM74.207031 75.058594C74.71875 75.253906 75.179688 75.535156 75.511719 76.015625 76.59375 77.570313 76.015625 80.191406 74.246094 80.9375 73.757813 79.007813 73.746094 76.988281 74.207031 75.058594zM71.832031 60.367188C72.667969 59.96875 73.742188 59.773438 74.636719 60.070313 75.398438 60.324219 75.992188 61.15625 75.539063 61.929688 75.144531 62.605469 74.214844 62.902344 73.472656 62.875 72.433594 62.835938 71.734375 62.082031 71.402344 61.136719 71.351563 60.984375 71.308594 60.832031 71.273438 60.675781 71.457031 60.566406 71.640625 60.460938 71.832031 60.367188zM81.167969 50.996094C81.738281 52.03125 82.085938 53.164063 82.214844 54.332031 80.171875 52.871094 78.761719 50.574219 78.371094 48.097656 79.585938 48.507813 80.59375 49.96875 81.167969 50.996094zM80.890625 158.683594C79.925781 157.605469 79.140625 156.335938 78.457031 155.109375 77.386719 153.191406 76.503906 151.027344 76.511719 148.796875 76.515625 147.703125 76.75 146.542969 77.328125 145.597656 77.582031 145.183594 78.015625 144.660156 78.542969 144.636719 79.144531 144.609375 79.519531 145.324219 79.804688 145.757813 80.925781 147.480469 81.632813 149.472656 81.875 151.511719 82.121094 153.535156 81.9375 155.609375 81.308594 157.550781 81.191406 157.921875 81.046875 158.304688 80.890625 158.683594zM184.570313 48.660156C183.511719 48.820313 182.375 48.550781 181.59375 47.792969 180.875 47.101563 180.726563 46.015625 181.539063 45.339844 182.167969 44.816406 183.136719 44.648438 183.886719 44.976563 184.792969 45.371094 185.300781 46.351563 185.472656 47.277344 185.539063 47.660156 185.550781 48.03125 185.523438 48.398438 185.214844 48.519531 184.894531 48.609375 184.570313 48.660156zM193.871094 109.859375C192.167969 107.886719 189.488281 107.53125 187.039063 107.238281 184.640625 106.953125 181.898438 106.59375 180.238281 104.621094 178.226563 102.234375 180.171875 99.425781 181.085938 97.03125 181.71875 95.386719 181.789063 93.101563 180.523438 91.714844 179.890625 91.019531 178.9375 90.730469 178.015625 90.898438 176.820313 91.117188 175.863281 92.003906 175.023438 92.824219 173.878906 93.945313 172.742188 95.078125 171.601563 96.203125 170.535156 97.253906 169.5 98.347656 168.34375 99.296875 166.59375 100.730469 163.960938 102.445313 161.613281 101.496094 159.21875 100.523438 158.996094 97.726563 159.363281 95.515625 159.734375 93.261719 160.703125 91.167969 160.976563 88.890625 161.21875 86.878906 160.9375 84.714844 159.292969 83.347656 158.980469 83.085938 158.523438 83.53125 158.839844 83.800781 160.710938 85.40625 160.507813 88.046875 159.988281 90.226563 159.464844 92.4375 158.546875 94.519531 158.441406 96.820313 158.34375 98.84375 158.960938 100.949219 160.828125 101.996094 162.84375 103.128906 165.203125 102.335938 167.03125 101.21875 169.441406 99.75 171.355469 97.582031 173.34375 95.621094 174.441406 94.539063 175.5 93.300781 176.742188 92.382813 177.675781 91.699219 179 91.289063 179.902344 92.242188 181.492188 93.933594 180.4375 96.554688 179.640625 98.308594 178.65625 100.488281 177.859375 102.902344 179.480469 104.992188 180.90625 106.839844 183.289063 107.566406 185.503906 107.882813 188.042969 108.242188 191.125 108.222656 193.039063 110.199219 193.800781 110.992188 194.410156 112.074219 194.390625 113.199219 194.367188 114.546875 193.359375 115.472656 192.160156 115.914063 189.351563 116.945313 186.253906 115.945313 183.375 115.898438 181.179688 115.867188 178.882813 116.597656 177.394531 118.289063 176.113281 119.746094 175.859375 121.785156 177.0625 123.378906 179.054688 126.023438 185.492188 126.671875 184.210938 131.113281 183.578125 133.316406 181.367188 134.945313 179.140625 135.210938 176.125 135.570313 173.203125 134.351563 170.402344 133.425781 166.117188 132.011719 160.296875 131.347656 157.730469 136.011719 155.421875 140.207031 157.234375 145.121094 157.089844 149.582031 157.046875 150.835938 156.726563 152.164063 155.699219 152.984375 154.84375 153.667969 153.703125 153.863281 152.636719 153.804688 149.980469 153.664063 147.890625 151.816406 145.839844 150.328125 143.796875 148.855469 141.375 147.546875 138.769531 147.933594 136.378906 148.285156 134.851563 150.203125 134.378906 152.476563 133.804688 155.238281 134.714844 157.941406 134.773438 160.703125 134.820313 162.902344 133.859375 166.105469 131.203125 166.304688 129.769531 166.410156 128.4375 165.507813 127.199219 164.90625 126.035156 164.335938 124.84375 163.800781 123.613281 163.390625 121.363281 162.644531 118.800781 162.308594 116.644531 163.507813 111.632813 166.308594 113.535156 172.976563 113.257813 177.546875 113.097656 180.15625 111.929688 183.234375 108.859375 183.230469 106.246094 183.230469 103.964844 181.496094 101.863281 180.160156 100.019531 178.988281 97.753906 177.945313 95.519531 178.066406 93.21875 178.1875 91.535156 179.777344 91.082031 182.019531 90.628906 184.277344 91.039063 186.621094 90.707031 188.902344 90.414063 190.921875 89.777344 193.078125 88.238281 194.503906 86.167969 196.421875 83.292969 195.96875 80.917969 194.921875 78.46875 193.847656 76.292969 192.238281 73.707031 191.46875 71.554688 190.824219 69.128906 190.753906 67.269531 192.179688 66.707031 192.609375 67.261719 193.578125 67.828125 193.144531 69.9375 191.527344 72.695313 192.128906 74.953125 193.101563 77.46875 194.183594 79.6875 195.878906 82.355469 196.625 84.691406 197.277344 87.199219 196.984375 89.027344 195.292969 90.574219 193.859375 91.335938 191.742188 91.699219 189.710938 91.890625 188.648438 91.984375 187.566406 92.011719 186.484375 92.035156 185.300781 91.933594 184.113281 92.066406 182.929688 92.203125 181.707031 92.644531 180.453125 93.71875 179.746094 94.621094 179.15625 95.742188 179.082031 96.785156 179.253906 99.230469 179.652344 101.144531 181.113281 103.207031 182.359375 105.253906 183.59375 107.835938 184.84375 110.277344 184.160156 112.910156 183.425781 114.03125 180.730469 114.3125 178.242188 114.628906 175.445313 113.976563 172.640625 114.265625 169.839844 114.515625 167.417969 115.59375 164.875 118.101563 164.085938 120.59375 163.304688 123.34375 164.351563 125.605469 165.378906 127.792969 166.378906 130.242188 168.203125 132.710938 167.03125 134.878906 166 135.84375 163.449219 135.890625 161.1875 135.949219 158.378906 134.878906 155.574219 135.457031 152.773438 135.703125 151.589844 136.230469 150.414063 137.242188 149.695313 138.300781 148.941406 139.667969 148.847656 140.910156 149.105469 145.804688 150.117188 148.960938 156.027344 154.46875 154.730469 156.941406 154.152344 158.09375 151.984375 158.171875 149.582031 158.25 147.207031 157.761719 144.824219 157.675781 142.453125 157.597656 140.234375 157.722656 137.800781 159.058594 135.929688 160.539063 133.855469 163.066406 133.261719 165.492188 133.429688 168.277344 133.621094 170.859375 134.742188 173.515625 135.496094 176.058594 136.21875 178.980469 136.714844 181.464844 135.515625 183.289063 134.636719 184.914063 132.875 185.253906 130.828125 185.589844 128.78125 184.4375 127.128906 182.792969 126.039063 181.253906 125.019531 179.285156 124.460938 178.019531 123.066406 176.425781 121.296875 177.464844 119.09375 179.234375 117.949219 181.601563 116.417969 184.289063 116.839844 186.949219 117.101563 189.390625 117.339844 192.675781 117.503906 194.425781 115.402344 195.835938 113.707031 195.195313 111.390625 193.871094 109.859375zM193.871094 109.859375" />
  <path d="M151.039063 120.460938C149.855469 119.347656 148.164063 119.832031 146.894531 120.503906 146.121094 120.910156 145.402344 121.414063 144.671875 121.882813 143.882813 122.390625 143.097656 122.898438 142.308594 123.402344 141.039063 124.21875 139.511719 125.394531 137.90625 124.917969 137.28125 124.730469 136.726563 124.285156 136.597656 123.621094 136.433594 122.773438 136.929688 121.910156 137.308594 121.1875 138.1875 119.507813 139.0625 117.824219 139.9375 116.136719 140.433594 115.1875 140.929688 114.238281 141.421875 113.285156 141.84375 112.476563 142.257813 111.621094 142.316406 110.695313 142.363281 109.925781 142.09375 109.164063 141.515625 108.636719 141.25 108.394531 140.925781 108.199219 140.570313 108.125 140.214844 108.050781 139.96875 108.160156 139.695313 108.386719 139.605469 108.46875 139.6875 108.601563 139.789063 108.609375 140.472656 108.671875 141.097656 108.960938 141.441406 109.578125 141.839844 110.292969 141.640625 111.15625 141.351563 111.878906 141.03125 112.679688 140.578125 113.433594 140.175781 114.195313L138.914063 116.578125C138.058594 118.1875 137.152344 119.777344 136.363281 121.417969 135.753906 122.6875 135.503906 124.230469 136.773438 125.179688 137.910156 126.023438 139.363281 125.859375 140.585938 125.308594 141.328125 124.972656 142.011719 124.507813 142.699219 124.070313 143.46875 123.582031 144.238281 123.09375 145.007813 122.605469 145.730469 122.148438 146.433594 121.660156 147.183594 121.253906 147.824219 120.90625 148.542969 120.589844 149.28125 120.589844 150.792969 120.589844 151.296875 122.164063 150.960938 123.417969 150.734375 124.277344 150.210938 125.03125 149.726563 125.765625 149.226563 126.519531 148.765625 127.289063 148.390625 128.113281 147.664063 129.710938 147.046875 131.59375 147.105469 133.367188 147.121094 133.777344 147.769531 133.90625 147.851563 133.46875 148 132.644531 148.085938 131.816406 148.285156 131.003906 148.484375 130.183594 148.753906 129.375 149.097656 128.605469 149.449219 127.816406 149.875 127.074219 150.347656 126.355469 150.800781 125.667969 151.253906 124.984375 151.5625 124.21875 152.042969 123.015625 152.046875 121.40625 151.039063 120.460938zM117.335938 95.261719C116.664063 94.816406 115.777344 94.878906 115.015625 95.011719 114.21875 95.152344 113.457031 95.484375 112.757813 95.890625 111.253906 96.765625 110.085938 98.039063 108.9375 99.328125 108.359375 99.976563 107.78125 100.628906 107.15625 101.238281 106.574219 101.804688 105.929688 102.429688 105.171875 102.757813 104.515625 103.035156 103.757813 103.019531 103.617188 102.183594 103.554688 101.800781 103.601563 101.398438 103.625 101.015625 103.65625 100.472656 103.691406 99.925781 103.722656 99.378906 103.855469 97.097656 103.980469 94.8125 104.105469 92.53125 104.140625 91.917969 103.183594 91.917969 103.148438 92.53125 103.03125 94.664063 102.910156 96.796875 102.792969 98.933594 102.738281 99.917969 102.609375 100.9375 102.660156 101.925781 102.699219 102.714844 103.027344 103.507813 103.835938 103.765625 105.460938 104.289063 107.089844 102.570313 108.078125 101.53125 109.324219 100.230469 110.398438 98.757813 111.765625 97.578125 112.527344 96.921875 113.398438 96.347656 114.34375 95.996094 114.804688 95.828125 115.28125 95.6875 115.769531 95.628906 116.265625 95.570313 116.765625 95.605469 117.261719 95.539063 117.40625 95.519531 117.46875 95.351563 117.335938 95.261719zM167.46875 151.664063C167.371094 151.277344 166.78125 151.441406 166.871094 151.828125 167.984375 156.617188 167.386719 161.785156 165.191406 166.1875 164.671875 167.230469 164.082031 168.28125 163.304688 169.15625 162.589844 169.964844 161.742188 170.488281 160.738281 170.78125 160.851563 169.339844 160.746094 167.890625 160.347656 166.484375 159.695313 164.199219 158.3125 162.019531 156.296875 160.710938 155.789063 160.382813 155.253906 160.140625 154.675781 159.957031 154.394531 159.871094 154.203125 160.304688 154.472656 160.4375 156.652344 161.507813 158.3125 163.289063 159.210938 165.550781 159.898438 167.292969 160.097656 169.132813 159.917969 170.960938 158.765625 171.175781 157.566406 171.265625 156.398438 171.273438 155.101563 171.285156 153.804688 171.140625 152.574219 170.714844 150.316406 169.925781 148.40625 167.960938 148.34375 165.484375 148.332031 164.925781 147.496094 164.925781 147.476563 165.484375 147.394531 167.816406 149.058594 169.914063 151.019531 170.996094 153.453125 172.34375 156.382813 172.304688 159.0625 171.980469 159.308594 171.949219 159.554688 171.914063 159.796875 171.875 159.726563 172.296875 159.644531 172.722656 159.535156 173.140625 159.171875 174.542969 158.617188 175.890625 157.945313 177.171875 157.289063 178.417969 156.546875 179.667969 155.65625 180.761719 154.8125 181.792969 153.75 182.5625 152.371094 182.550781 151.027344 182.546875 149.742188 181.90625 148.671875 181.144531 146.53125 179.609375 144.890625 177.285156 142.277344 176.476563 140.109375 175.808594 137.421875 176.320313 136.476563 178.605469 135.960938 179.859375 136.082031 181.25 136.027344 182.574219 135.972656 183.792969 135.671875 184.988281 135.121094 186.078125 134.046875 188.203125 132.0625 190.070313 129.691406 190.613281 128.527344 190.878906 127.246094 190.660156 126.664063 189.515625 126.195313 188.582031 126.320313 187.410156 126.65625 186.457031 127.09375 185.214844 128.035156 184.199219 128.316406 182.890625 128.5625 181.746094 128.167969 180.476563 127.15625 179.816406 126.703125 179.519531 126.152344 179.445313 125.636719 179.589844 125.003906 179.765625 125.273438 180.753906 125.910156 180.574219 126.386719 180.441406 126.792969 180.738281 127.050781 181.128906 127.375 181.621094 127.441406 182.171875 127.300781 182.738281 126.980469 184.03125 126.023438 185.0625 125.617188 186.328125 125.277344 187.398438 125.203125 188.640625 125.628906 189.695313 126.109375 190.898438 127.171875 191.628906 128.453125 191.738281 129.78125 191.851563 131.140625 191.316406 132.261719 190.644531 133.335938 190 134.273438 189.140625 135.035156 188.144531 135.792969 187.15625 136.371094 186.023438 136.710938 184.824219 137.082031 183.503906 137.039063 182.175781 137.101563 180.824219 137.152344 179.601563 137.4375 178.335938 138.574219 177.679688 139.507813 177.140625 140.6875 177.128906 141.710938 177.382813 144.382813 178.042969 146.109375 180.542969 148.300781 182.019531 149.4375 182.78125 150.757813 183.347656 152.136719 183.417969 153.496094 183.484375 154.730469 182.941406 155.691406 181.992188 156.691406 181 157.460938 179.730469 158.15625 178.515625 158.882813 177.253906 159.503906 175.925781 159.96875 174.539063 160.273438 173.621094 160.5 172.675781 160.636719 171.714844 161.421875 171.535156 162.171875 171.257813 162.839844 170.773438 163.84375 170.042969 164.585938 169.039063 165.207031 167.972656 166.539063 165.691406 167.453125 163.140625 167.855469 160.53125 168.304688 157.570313 168.203125 154.566406 167.46875 151.664063zM115.335938 150.023438C114.839844 149.125 114.03125 148.457031 112.996094 148.328125 112.640625 148.285156 112.554688 148.898438 112.910156 148.964844 114.011719 149.164063 114.707031 150.058594 114.96875 151.101563 115.285156 152.363281 114.847656 153.628906 114.242188 154.730469 113.53125 156.023438 112.652344 157.226563 111.835938 158.453125 111.398438 159.113281 110.957031 159.773438 110.519531 160.4375 110.085938 161.085938 109.5625 161.734375 109.253906 162.449219 109.097656 162.804688 109.515625 163.222656 109.828125 162.894531 110.296875 162.40625 110.632813 161.796875 111.003906 161.234375 111.386719 160.65625 111.769531 160.078125 112.152344 159.496094 112.882813 158.390625 113.632813 157.292969 114.339844 156.171875 115.484375 154.351563 116.460938 152.089844 115.335938 150.023438zM115.335938 150.023438" />
  <g clip-path="url(#svg528127907457tikz_00007t)">
    <use xlink:href="#svg528127907457tikz_00007u" transform="translate(37 32)" mask="url(#svg528127907457tikz_00007v)" />
  </g>
  <path d="M 1506.171875 1413.160938 L 2147.65625 1510.348438" transform="matrix(.1 0 0 -.1 0 218.32)" fill="none" stroke-width="7.97" stroke-linecap="round" stroke-linejoin="round" stroke="#000" stroke-miterlimit="10" />
  <use xlink:href="#svg528127907457tikz_00007w" transform="translate(144 72)" />
  <path d="M226.0625 67.316406C226.988281 67.070313 227.648438 66.621094 227.648438 65.632813 227.648438 64.527344 226.898438 63.890625 224.914063 63.890625L221.902344 63.890625 221.902344 64.226563C222.804688 64.226563 222.984375 64.347656 222.984375 65.238281L222.984375 69.804688C222.984375 70.730469 222.804688 70.886719 221.902344 70.886719L221.902344 71.21875 225.339844 71.21875C227 71.21875 228.003906 70.515625 228.003906 69.246094 228.003906 68.027344 227.011719 67.515625 226.0625 67.359375zM224.011719 67.179688L224.011719 64.359375C224.234375 64.335938 224.46875 64.324219 224.679688 64.324219 226.039063 64.324219 226.542969 64.851563 226.542969 65.71875 226.542969 66.734375 226.117188 67.179688 224.769531 67.179688zM224.011719 67.648438L224.789063 67.648438C225.828125 67.648438 226.832031 67.996094 226.832031 69.265625 226.832031 70.683594 225.773438 70.808594 224.8125 70.808594 224.546875 70.808594 224.277344 70.796875 224.011719 70.773438L224.011719 67.648438M233.128906 69.625C232.773438 70.09375 232.425781 70.496094 231.523438 70.496094 230.632813 70.496094 229.78125 69.792969 229.78125 68.253906L233.308594 68.253906C233.253906 66.691406 232.449219 65.808594 231.234375 65.808594 229.929688 65.808594 228.878906 66.699219 228.878906 68.566406 228.878906 70.359375 229.917969 71.332031 231.257813 71.332031 232.40625 71.332031 232.941406 70.628906 233.34375 69.78125zM229.773438 67.839844C229.859375 66.804688 230.308594 66.257813 231.066406 66.257813 231.859375 66.257813 232.226563 67.015625 232.257813 67.839844L229.773438 67.839844M236.96875 70.214844C236.691406 70.527344 236.546875 70.671875 236.1875 70.671875 235.753906 70.671875 235.652344 70.40625 235.652344 69.613281L235.652344 66.410156 236.914063 66.410156 236.914063 65.941406 235.652344 65.941406 235.664063 64.414063 235.371094 64.414063C234.972656 65.363281 234.636719 65.832031 234.113281 66.152344L234.113281 66.410156 234.726563 66.410156 234.726563 69.925781C234.726563 70.929688 235.050781 71.332031 235.796875 71.332031 236.511719 71.332031 236.746094 70.996094 237.179688 70.394531L236.96875 70.214844M240.636719 70.527344C240.703125 71.019531 240.8125 71.277344 241.304688 71.277344 241.875 71.277344 242.140625 71.042969 242.511719 70.507813L242.34375 70.328125C242.1875 70.496094 242.03125 70.605469 241.820313 70.605469 241.585938 70.605469 241.484375 70.515625 241.484375 70.058594L241.484375 67.527344C241.484375 66.367188 241.027344 65.808594 239.8125 65.808594 238.59375 65.808594 237.847656 66.410156 237.847656 67.035156 237.847656 67.402344 238.09375 67.570313 238.316406 67.570313 238.628906 67.570313 238.804688 67.402344 238.804688 67.058594 238.804688 66.390625 238.917969 66.152344 239.554688 66.152344 240.222656 66.152344 240.558594 66.523438 240.558594 67.492188L240.558594 67.984375C239.597656 68.285156 237.621094 68.574219 237.621094 70.046875 237.621094 70.761719 238.09375 71.296875 238.953125 71.296875 239.664063 71.296875 240.066406 70.984375 240.59375 70.527344zM240.558594 70.191406C240.179688 70.507813 239.777344 70.683594 239.410156 70.683594 238.929688 70.683594 238.605469 70.339844 238.605469 69.78125 238.605469 68.910156 239.542969 68.609375 240.558594 68.351563L240.558594 70.191406M245.632813 69.390625L245.667969 71.308594 245.902344 71.308594 246.136719 71.054688 246.160156 71.054688C246.449219 71.175781 246.785156 71.34375 247.429688 71.34375 248.4375 71.34375 249.304688 70.941406 249.304688 69.890625 249.304688 69.066406 248.757813 68.652344 247.742188 68.117188 246.804688 67.640625 246.4375 67.359375 246.4375 66.925781 246.4375 66.421875 246.828125 66.1875 247.34375 66.1875 248.023438 66.1875 248.4375 66.511719 248.679688 67.570313L248.980469 67.570313 248.949219 65.863281 248.726563 65.863281 248.535156 66.101563 248.523438 66.101563C248.246094 65.964844 247.910156 65.808594 247.351563 65.808594 246.394531 65.808594 245.648438 66.300781 245.648438 67.214844 245.648438 68.039063 246.101563 68.429688 247.117188 68.941406 248.15625 69.457031 248.367188 69.671875 248.367188 70.191406 248.367188 70.71875 247.96875 70.929688 247.410156 70.929688 246.582031 70.929688 246.160156 70.539063 245.925781 69.390625L245.632813 69.390625M251.640625 67.214844C252.1875 66.710938 252.589844 66.523438 253.023438 66.523438 253.929688 66.523438 254.050781 67.292969 254.050781 68.207031L254.050781 70.136719C254.050781 70.671875 254.007813 70.898438 253.238281 70.898438L253.238281 71.21875 255.804688 71.21875 255.804688 70.898438C255.101563 70.898438 254.976563 70.683594 254.976563 70.09375L254.976563 67.871094C254.976563 66.960938 254.765625 65.808594 253.484375 65.808594 252.890625 65.808594 252.378906 66.066406 251.675781 66.726563L251.640625 66.726563 251.640625 63.34375 251.339844 63.34375 249.84375 63.734375 249.84375 64.046875C249.84375 64.046875 249.992188 64.023438 250.167969 64.023438 250.46875 64.023438 250.714844 64.078125 250.714844 64.46875L250.714844 70.183594C250.714844 70.808594 250.515625 70.898438 249.933594 70.898438L249.933594 71.21875 252.46875 71.21875 252.46875 70.898438C251.695313 70.898438 251.640625 70.71875 251.640625 70.136719L251.640625 67.214844M260.730469 69.625C260.371094 70.09375 260.027344 70.496094 259.121094 70.496094 258.230469 70.496094 257.382813 69.792969 257.382813 68.253906L260.90625 68.253906C260.851563 66.691406 260.050781 65.808594 258.832031 65.808594 257.527344 65.808594 256.480469 66.699219 256.480469 68.566406 256.480469 70.359375 257.515625 71.332031 258.855469 71.332031 260.003906 71.332031 260.539063 70.628906 260.941406 69.78125zM257.371094 67.839844C257.460938 66.804688 257.90625 66.257813 258.664063 66.257813 259.457031 66.257813 259.828125 67.015625 259.859375 67.839844L257.371094 67.839844M265.929688 69.625C265.574219 70.09375 265.226563 70.496094 264.324219 70.496094 263.429688 70.496094 262.582031 69.792969 262.582031 68.253906L266.109375 68.253906C266.054688 66.691406 265.25 65.808594 264.03125 65.808594 262.726563 65.808594 261.679688 66.699219 261.679688 68.566406 261.679688 70.359375 262.71875 71.332031 264.054688 71.332031 265.203125 71.332031 265.742188 70.628906 266.140625 69.78125zM262.570313 67.839844C262.660156 66.804688 263.109375 66.257813 263.867188 66.257813 264.65625 66.257813 265.027344 67.015625 265.058594 67.839844L262.570313 67.839844M269.769531 70.214844C269.492188 70.527344 269.34375 70.671875 268.988281 70.671875 268.554688 70.671875 268.453125 70.40625 268.453125 69.613281L268.453125 66.410156 269.714844 66.410156 269.714844 65.941406 268.453125 65.941406 268.464844 64.414063 268.171875 64.414063C267.773438 65.363281 267.4375 65.832031 266.914063 66.152344L266.914063 66.410156 267.527344 66.410156 267.527344 69.925781C267.527344 70.929688 267.851563 71.332031 268.597656 71.332031 269.3125 71.332031 269.546875 70.996094 269.980469 70.394531L269.769531 70.214844" />
  <path d="M 1960.742188 1046.754688 L 2147.65625 672.926563" transform="matrix(.1 0 0 -.1 0 218.32)" fill="none" stroke-width="7.97" stroke-linecap="round" stroke-linejoin="round" stroke="#000" stroke-miterlimit="10" />
  <use xlink:href="#svg528127907457tikz_00007x" transform="translate(190 106)" />
  <path d="M226.867188 153.71875L226.867188 153.386719C226.261719 153.386719 226.039063 153.128906 225.71875 152.390625L223.070313 146.335938 222.617188 146.335938 220.25 151.9375C219.714844 153.207031 219.558594 153.386719 218.933594 153.386719L218.933594 153.71875 221.277344 153.71875 221.277344 153.386719C220.753906 153.386719 220.527344 153.320313 220.527344 153.007813 220.527344 152.804688 220.585938 152.636719 220.652344 152.460938L221.152344 151.277344 224.007813 151.277344 224.445313 152.28125C224.589844 152.617188 224.632813 152.816406 224.632813 152.972656 224.632813 153.363281 224.199219 153.386719 223.863281 153.386719L223.863281 153.71875zM223.84375 150.832031L221.320313 150.832031 222.582031 147.707031 222.617188 147.707031 223.84375 150.832031M229.800781 153.398438C228.996094 153.398438 228.941406 153.242188 228.941406 152.59375L228.941406 145.84375 228.664063 145.84375 227.191406 146.234375 227.191406 146.535156C227.191406 146.535156 227.359375 146.515625 227.546875 146.515625 227.828125 146.515625 228.015625 146.535156 228.015625 146.992188L228.015625 152.59375C228.015625 153.21875 227.96875 153.398438 227.234375 153.398438L227.234375 153.71875 229.800781 153.71875 229.800781 153.398438M232.0625 148.34375L231.785156 148.34375 230.378906 148.65625 230.378906 148.976563C230.378906 148.976563 230.589844 148.957031 230.734375 148.957031 231.105469 148.957031 231.160156 149.101563 231.160156 149.523438L231.160156 155.046875C231.160156 155.671875 231.046875 155.863281 230.34375 155.863281L230.34375 156.175781 233.167969 156.175781 233.167969 155.851563C232.296875 155.851563 232.085938 155.707031 232.085938 154.980469L232.085938 153.519531 232.128906 153.519531C232.453125 153.742188 232.832031 153.832031 233.257813 153.832031 234.59375 153.832031 235.699219 152.703125 235.699219 150.808594 235.699219 149.347656 234.929688 148.308594 233.828125 148.308594 233.167969 148.308594 232.632813 148.65625 232.097656 149.28125L232.0625 149.28125zM232.085938 149.75C232.296875 149.46875 232.777344 149.070313 233.367188 149.070313 234.195313 149.070313 234.6875 149.714844 234.6875 151.121094 234.6875 152.671875 234.09375 153.398438 233.3125 153.398438 232.6875 153.398438 232.296875 152.894531 232.085938 152.660156L232.085938 149.75M238.140625 149.714844C238.6875 149.210938 239.089844 149.023438 239.523438 149.023438 240.429688 149.023438 240.550781 149.792969 240.550781 150.707031L240.550781 152.636719C240.550781 153.171875 240.507813 153.398438 239.738281 153.398438L239.738281 153.71875 242.304688 153.71875 242.304688 153.398438C241.601563 153.398438 241.476563 153.183594 241.476563 152.59375L241.476563 150.375C241.476563 149.460938 241.265625 148.308594 239.984375 148.308594 239.390625 148.308594 238.878906 148.566406 238.175781 149.226563L238.140625 149.226563 238.140625 145.84375 237.839844 145.84375 236.34375 146.234375 236.34375 146.546875C236.34375 146.546875 236.492188 146.523438 236.667969 146.523438 236.96875 146.523438 237.214844 146.578125 237.214844 146.96875L237.214844 152.683594C237.214844 153.308594 237.015625 153.398438 236.433594 153.398438L236.433594 153.71875 238.96875 153.71875 238.96875 153.398438C238.195313 153.398438 238.140625 153.21875 238.140625 152.636719L238.140625 149.714844M246.035156 153.027344C246.101563 153.519531 246.214844 153.777344 246.707031 153.777344 247.273438 153.777344 247.542969 153.542969 247.910156 153.007813L247.742188 152.828125C247.589844 152.996094 247.429688 153.105469 247.21875 153.105469 246.984375 153.105469 246.882813 153.015625 246.882813 152.558594L246.882813 150.027344C246.882813 148.867188 246.425781 148.308594 245.210938 148.308594 243.996094 148.308594 243.246094 148.914063 243.246094 149.535156 243.246094 149.90625 243.492188 150.070313 243.714844 150.070313 244.027344 150.070313 244.207031 149.90625 244.207031 149.558594 244.207031 148.890625 244.320313 148.65625 244.953125 148.65625 245.621094 148.65625 245.957031 149.023438 245.957031 149.992188L245.957031 150.484375C244.996094 150.785156 243.023438 151.078125 243.023438 152.546875 243.023438 153.261719 243.492188 153.796875 244.351563 153.796875 245.066406 153.796875 245.46875 153.484375 245.992188 153.027344zM245.957031 152.695313C245.578125 153.007813 245.175781 153.183594 244.808594 153.183594 244.328125 153.183594 244.007813 152.839844 244.007813 152.28125 244.007813 151.410156 244.941406 151.109375 245.957031 150.851563L245.957031 152.695313M252.640625 149.714844C253.1875 149.210938 253.589844 149.023438 254.023438 149.023438 254.929688 149.023438 255.050781 149.792969 255.050781 150.707031L255.050781 152.636719C255.050781 153.171875 255.007813 153.398438 254.238281 153.398438L254.238281 153.71875 256.804688 153.71875 256.804688 153.398438C256.101563 153.398438 255.976563 153.183594 255.976563 152.59375L255.976563 150.375C255.976563 149.460938 255.765625 148.308594 254.484375 148.308594 253.890625 148.308594 253.378906 148.566406 252.675781 149.226563L252.640625 149.226563 252.640625 145.84375 252.339844 145.84375 250.84375 146.234375 250.84375 146.546875C250.84375 146.546875 250.992188 146.523438 251.167969 146.523438 251.46875 146.523438 251.714844 146.578125 251.714844 146.96875L251.714844 152.683594C251.714844 153.308594 251.515625 153.398438 250.933594 153.398438L250.933594 153.71875 253.46875 153.71875 253.46875 153.398438C252.695313 153.398438 252.640625 153.21875 252.640625 152.636719L252.640625 149.714844M261.730469 152.125C261.371094 152.59375 261.027344 152.996094 260.121094 152.996094 259.230469 152.996094 258.382813 152.292969 258.382813 150.753906L261.90625 150.753906C261.851563 149.191406 261.050781 148.308594 259.832031 148.308594 258.527344 148.308594 257.480469 149.203125 257.480469 151.066406 257.480469 152.859375 258.515625 153.832031 259.855469 153.832031 261.003906 153.832031 261.539063 153.128906 261.941406 152.28125zM258.371094 150.339844C258.460938 149.304688 258.90625 148.757813 259.664063 148.757813 260.457031 148.757813 260.828125 149.515625 260.859375 150.339844L258.371094 150.339844M265.199219 153.398438C264.398438 153.398438 264.34375 153.242188 264.34375 152.59375L264.34375 145.84375 264.0625 145.84375 262.589844 146.234375 262.589844 146.535156C262.589844 146.535156 262.757813 146.515625 262.945313 146.515625 263.226563 146.515625 263.414063 146.535156 263.414063 146.992188L263.414063 152.59375C263.414063 153.21875 263.371094 153.398438 262.632813 153.398438L262.632813 153.71875 265.199219 153.71875 265.199219 153.398438M267.117188 145.988281C266.726563 145.988281 266.480469 146.28125 266.480469 146.613281 266.480469 146.960938 266.738281 147.25 267.117188 147.25 267.507813 147.25 267.753906 146.960938 267.753906 146.613281 267.753906 146.28125 267.507813 145.988281 267.117188 145.988281zM268.367188 153.40625C267.621094 153.40625 267.5625 153.242188 267.5625 152.59375L267.5625 148.34375 267.273438 148.34375 265.867188 148.65625 265.867188 148.976563C265.867188 148.976563 265.992188 148.957031 266.148438 148.957031 266.46875 148.957031 266.636719 149 266.636719 149.480469L266.636719 152.59375C266.636719 153.230469 266.605469 153.40625 265.855469 153.40625L265.855469 153.71875 268.367188 153.71875 268.367188 153.40625M273.976563 153.71875L273.976563 153.398438C273.5625 153.398438 273.398438 153.195313 273.085938 152.75L271.714844 150.808594 272.894531 149.289063C273.152344 148.96875 273.40625 148.765625 273.789063 148.765625L273.789063 148.445313 271.945313 148.445313 271.945313 148.757813C272.304688 148.757813 272.40625 148.855469 272.40625 149.023438 272.40625 149.203125 272.304688 149.367188 272.003906 149.78125L271.476563 150.539063 271.433594 150.539063 271.164063 150.050781C270.785156 149.425781 270.585938 149.191406 270.585938 149.011719 270.585938 148.84375 270.765625 148.757813 271.121094 148.757813L271.121094 148.445313 268.722656 148.445313 268.722656 148.765625C269.179688 148.765625 269.3125 148.878906 269.703125 149.4375L270.863281 151.097656 269.527344 152.839844C269.15625 153.273438 268.957031 153.398438 268.578125 153.398438L268.578125 153.71875 270.441406 153.71875 270.441406 153.398438C270.070313 153.398438 269.9375 153.351563 269.9375 153.230469 269.9375 153.140625 270.09375 152.9375 270.207031 152.761719L271.121094 151.445313 271.164063 151.445313 271.390625 151.835938 272.09375 152.917969C272.148438 153.007813 272.171875 153.074219 272.171875 153.152344 272.171875 153.339844 272.035156 153.398438 271.644531 153.398438L271.644531 153.71875 273.976563 153.71875" />
  <path d="M 1621.09375 577.184375 L 2147.65625 672.926563" transform="matrix(.1 0 0 -.1 0 218.32)" fill="none" stroke-width="7.97" stroke-linecap="round" stroke-linejoin="round" stroke="#000" stroke-miterlimit="10" />
  <use xlink:href="#svg528127907457tikz_00007y" transform="translate(156 155)" />
  <path d="M 2092.96875 1196.325 L 2671.054688 1196.325" transform="matrix(.1 0 0 -.1 0 218.32)" fill="none" stroke-width="7.97" stroke-linecap="round" stroke-linejoin="round" stroke="#000" stroke-miterlimit="10" />
  <use xlink:href="#svg528127907457tikz_00007z" transform="translate(204 95)" />
  <path d="M 2671.054688 1091.6375 L 3613.164063 1091.6375 L 3613.164063 1300.973438 L 2671.054688 1300.973438 Z M 2671.054688 1091.6375" transform="matrix(.1 0 0 -.1 0 218.32)" fill="none" stroke-width="7.97" stroke-linecap="round" stroke-linejoin="round" stroke="#000" stroke-miterlimit="10" />
  <path d="M279.347656 95.996094L279.257813 93.988281 273.089844 93.988281 272.96875 95.996094 273.3125 95.996094C273.546875 94.78125 273.703125 94.492188 274.929688 94.492188L275.644531 94.492188 275.644531 99.859375C275.644531 100.871094 275.488281 100.984375 274.550781 100.984375L274.550781 101.320313 277.789063 101.320313 277.789063 100.984375C276.828125 100.984375 276.683594 100.871094 276.683594 99.859375L276.683594 94.492188 277.386719 94.492188C278.621094 94.492188 278.757813 94.78125 279.003906 95.996094L279.347656 95.996094M283.429688 99.726563C283.074219 100.191406 282.726563 100.59375 281.824219 100.59375 280.929688 100.59375 280.082031 99.890625 280.082031 98.351563L283.609375 98.351563C283.554688 96.789063 282.75 95.910156 281.53125 95.910156 280.226563 95.910156 279.179688 96.800781 279.179688 98.664063 279.179688 100.460938 280.21875 101.429688 281.554688 101.429688 282.703125 101.429688 283.242188 100.730469 283.640625 99.882813zM280.070313 97.941406C280.160156 96.902344 280.609375 96.355469 281.367188 96.355469 282.15625 96.355469 282.527344 97.113281 282.558594 97.941406L280.070313 97.941406M286.042969 95.941406L285.773438 95.941406 284.390625 96.277344 284.390625 96.589844C284.390625 96.589844 284.511719 96.566406 284.734375 96.566406 285.136719 96.566406 285.136719 96.769531 285.136719 97.171875L285.136719 100.238281C285.136719 100.863281 285.058594 100.996094 284.324219 100.996094L284.324219 101.320313 287.113281 101.320313 287.113281 100.996094C286.277344 100.996094 286.0625 100.886719 286.0625 100.183594L286.0625 97.640625C286.332031 97.191406 286.6875 96.722656 286.945313 96.722656 287.078125 96.722656 287.300781 97.101563 287.671875 97.101563 287.914063 97.101563 288.160156 96.925781 288.160156 96.5 288.160156 96.121094 287.949219 95.875 287.515625 95.875 286.976563 95.875 286.644531 96.265625 286.074219 97.09375L286.042969 97.09375 286.042969 95.941406M291.570313 100.316406C291.289063 100.628906 291.144531 100.773438 290.789063 100.773438 290.351563 100.773438 290.253906 100.507813 290.253906 99.714844L290.253906 96.511719 291.511719 96.511719 291.511719 96.042969 290.253906 96.042969 290.265625 94.515625 289.972656 94.515625C289.570313 95.460938 289.238281 95.929688 288.714844 96.253906L288.714844 96.511719 289.328125 96.511719 289.328125 100.027344C289.328125 101.027344 289.648438 101.429688 290.398438 101.429688 291.109375 101.429688 291.34375 101.097656 291.78125 100.496094L291.570313 100.316406M293.417969 93.589844C293.027344 93.589844 292.78125 93.878906 292.78125 94.214844 292.78125 94.558594 293.039063 94.851563 293.417969 94.851563 293.808594 94.851563 294.054688 94.558594 294.054688 94.214844 294.054688 93.878906 293.808594 93.589844 293.417969 93.589844zM294.667969 101.007813C293.921875 101.007813 293.863281 100.839844 293.863281 100.191406L293.863281 95.941406 293.574219 95.941406 292.167969 96.253906 292.167969 96.578125C292.167969 96.578125 292.289063 96.554688 292.445313 96.554688 292.769531 96.554688 292.9375 96.601563 292.9375 97.082031L292.9375 100.191406C292.9375 100.828125 292.90625 101.007813 292.15625 101.007813L292.15625 101.320313 294.667969 101.320313 294.667969 101.007813M298.4375 100.628906C298.503906 101.117188 298.613281 101.375 299.105469 101.375 299.675781 101.375 299.941406 101.140625 300.3125 100.605469L300.144531 100.429688C299.988281 100.59375 299.832031 100.707031 299.617188 100.707031 299.382813 100.707031 299.285156 100.617188 299.285156 100.160156L299.285156 97.628906C299.285156 96.46875 298.828125 95.910156 297.609375 95.910156 296.394531 95.910156 295.648438 96.511719 295.648438 97.136719 295.648438 97.503906 295.890625 97.671875 296.117188 97.671875 296.429688 97.671875 296.605469 97.503906 296.605469 97.160156 296.605469 96.488281 296.71875 96.253906 297.355469 96.253906 298.023438 96.253906 298.359375 96.621094 298.359375 97.59375L298.359375 98.085938C297.398438 98.386719 295.421875 98.675781 295.421875 100.148438 295.421875 100.863281 295.890625 101.398438 296.753906 101.398438 297.464844 101.398438 297.867188 101.085938 298.390625 100.628906zM298.359375 100.292969C297.976563 100.605469 297.578125 100.785156 297.210938 100.785156 296.730469 100.785156 296.40625 100.4375 296.40625 99.882813 296.40625 99.011719 297.34375 98.710938 298.359375 98.453125L298.359375 100.292969M302.441406 95.941406L302.171875 95.941406 300.789063 96.277344 300.789063 96.589844C300.789063 96.589844 300.914063 96.566406 301.136719 96.566406 301.539063 96.566406 301.539063 96.769531 301.539063 97.171875L301.539063 100.238281C301.539063 100.863281 301.460938 100.996094 300.722656 100.996094L300.722656 101.320313 303.511719 101.320313 303.511719 100.996094C302.675781 100.996094 302.464844 100.886719 302.464844 100.183594L302.464844 97.640625C302.730469 97.191406 303.089844 96.722656 303.34375 96.722656 303.480469 96.722656 303.703125 97.101563 304.070313 97.101563 304.316406 97.101563 304.5625 96.925781 304.5625 96.5 304.5625 96.121094 304.351563 95.875 303.914063 95.875 303.378906 95.875 303.042969 96.265625 302.476563 97.09375L302.441406 97.09375 302.441406 95.941406" />
  <path d="M310.101563 96.042969L308.203125 96.042969 308.203125 96.367188C308.570313 96.367188 308.828125 96.421875 308.828125 96.644531 308.828125 96.734375 308.796875 96.835938 308.773438 96.925781L307.703125 100.191406 307.621094 100.191406 307.46875 99.613281 306.371094 97.160156C306.304688 97.003906 306.21875 96.8125 306.21875 96.679688 306.21875 96.476563 306.351563 96.378906 306.851563 96.378906L306.851563 96.042969 304.464844 96.042969 304.464844 96.367188C304.867188 96.367188 305.023438 96.511719 305.136719 96.769531L306.773438 100.351563C306.910156 100.652344 307.109375 101.117188 307.109375 101.265625 307.109375 101.585938 306.476563 102.972656 306.117188 102.972656 305.839844 102.972656 305.605469 102.726563 305.214844 102.726563 304.914063 102.726563 304.6875 102.871094 304.6875 103.207031 304.6875 103.628906 305.011719 103.785156 305.515625 103.785156 306.417969 103.785156 306.964844 103.207031 307.589844 101.566406L309.328125 96.992188C309.484375 96.554688 309.652344 96.367188 310.101563 96.367188L310.101563 96.042969M313.132813 99.488281L313.167969 101.410156 313.402344 101.410156 313.636719 101.152344 313.660156 101.152344C313.949219 101.273438 314.285156 101.441406 314.929688 101.441406 315.9375 101.441406 316.804688 101.039063 316.804688 99.992188 316.804688 99.167969 316.257813 98.753906 315.242188 98.21875 314.304688 97.738281 313.9375 97.460938 313.9375 97.023438 313.9375 96.523438 314.328125 96.289063 314.84375 96.289063 315.523438 96.289063 315.9375 96.613281 316.179688 97.671875L316.480469 97.671875 316.449219 95.964844 316.226563 95.964844 316.035156 96.199219 316.023438 96.199219C315.746094 96.066406 315.410156 95.910156 314.851563 95.910156 313.894531 95.910156 313.148438 96.398438 313.148438 97.316406 313.148438 98.140625 313.601563 98.53125 314.617188 99.042969 315.65625 99.558594 315.867188 99.769531 315.867188 100.292969 315.867188 100.816406 315.46875 101.027344 314.910156 101.027344 314.082031 101.027344 313.660156 100.640625 313.425781 99.488281L313.132813 99.488281M320.367188 100.316406C320.089844 100.628906 319.945313 100.773438 319.589844 100.773438 319.152344 100.773438 319.054688 100.507813 319.054688 99.714844L319.054688 96.511719 320.3125 96.511719 320.3125 96.042969 319.054688 96.042969 319.0625 94.515625 318.773438 94.515625C318.371094 95.460938 318.039063 95.929688 317.511719 96.253906L317.511719 96.511719 318.128906 96.511719 318.128906 100.027344C318.128906 101.027344 318.449219 101.429688 319.195313 101.429688 319.910156 101.429688 320.144531 101.097656 320.582031 100.496094L320.367188 100.316406M322.742188 95.941406L322.472656 95.941406 321.089844 96.277344 321.089844 96.589844C321.089844 96.589844 321.214844 96.566406 321.4375 96.566406 321.839844 96.566406 321.839844 96.769531 321.839844 97.171875L321.839844 100.238281C321.839844 100.863281 321.757813 100.996094 321.023438 100.996094L321.023438 101.320313 323.8125 101.320313 323.8125 100.996094C322.976563 100.996094 322.765625 100.886719 322.765625 100.183594L322.765625 97.640625C323.03125 97.191406 323.390625 96.722656 323.644531 96.722656 323.78125 96.722656 324.003906 97.101563 324.371094 97.101563 324.617188 97.101563 324.859375 96.925781 324.859375 96.5 324.859375 96.121094 324.648438 95.875 324.214844 95.875 323.679688 95.875 323.34375 96.265625 322.773438 97.09375L322.742188 97.09375 322.742188 95.941406M330.925781 100.816406L330.8125 100.816406C330.277344 100.816406 330.144531 100.738281 330.144531 100.082031L330.144531 95.988281 329.875 95.988281 328.3125 96.152344 328.3125 96.46875C329.027344 96.46875 329.21875 96.523438 329.21875 97.113281L329.21875 100.046875C328.773438 100.4375 328.414063 100.71875 327.84375 100.71875 327.265625 100.71875 326.839844 100.382813 326.839844 99.246094L326.839844 95.988281 326.59375 95.988281 325.15625 96.152344 325.15625 96.46875C325.757813 96.476563 325.914063 96.523438 325.914063 97.125L325.914063 99.390625C325.914063 100.90625 326.449219 101.429688 327.378906 101.429688 328.089844 101.429688 328.617188 101.097656 329.207031 100.515625L329.261719 100.515625 329.261719 101.375 329.507813 101.375 330.925781 101.117188 330.925781 100.816406M335.851563 99.667969C335.351563 100.316406 334.96875 100.59375 334.246094 100.59375 333.097656 100.59375 332.550781 99.636719 332.550781 98.273438 332.550781 96.992188 333.097656 96.320313 334 96.320313 334.960938 96.320313 334.589844 97.59375 335.417969 97.59375 335.730469 97.59375 335.886719 97.414063 335.886719 97.09375 335.886719 96.445313 335.238281 95.910156 334.1875 95.910156 332.582031 95.910156 331.667969 97.046875 331.667969 98.796875 331.667969 100.351563 332.503906 101.429688 333.898438 101.429688 335.09375 101.429688 335.640625 100.730469 336.0625 99.824219L335.851563 99.667969M339.570313 100.316406C339.289063 100.628906 339.144531 100.773438 338.789063 100.773438 338.351563 100.773438 338.253906 100.507813 338.253906 99.714844L338.253906 96.511719 339.511719 96.511719 339.511719 96.042969 338.253906 96.042969 338.265625 94.515625 337.972656 94.515625C337.570313 95.460938 337.238281 95.929688 336.714844 96.253906L336.714844 96.511719 337.328125 96.511719 337.328125 100.027344C337.328125 101.027344 337.648438 101.429688 338.398438 101.429688 339.109375 101.429688 339.34375 101.097656 339.78125 100.496094L339.570313 100.316406M345.824219 100.816406L345.714844 100.816406C345.179688 100.816406 345.042969 100.738281 345.042969 100.082031L345.042969 95.988281 344.773438 95.988281 343.214844 96.152344 343.214844 96.46875C343.929688 96.46875 344.117188 96.523438 344.117188 97.113281L344.117188 100.046875C343.671875 100.4375 343.3125 100.71875 342.746094 100.71875 342.164063 100.71875 341.742188 100.382813 341.742188 99.246094L341.742188 95.988281 341.496094 95.988281 340.054688 96.152344 340.054688 96.46875C340.660156 96.476563 340.816406 96.523438 340.816406 97.125L340.816406 99.390625C340.816406 100.90625 341.351563 101.429688 342.277344 101.429688 342.992188 101.429688 343.515625 101.097656 344.105469 100.515625L344.164063 100.515625 344.164063 101.375 344.40625 101.375 345.824219 101.117188 345.824219 100.816406M348.242188 95.941406L347.972656 95.941406 346.589844 96.277344 346.589844 96.589844C346.589844 96.589844 346.714844 96.566406 346.9375 96.566406 347.339844 96.566406 347.339844 96.769531 347.339844 97.171875L347.339844 100.238281C347.339844 100.863281 347.257813 100.996094 346.523438 100.996094L346.523438 101.320313 349.3125 101.320313 349.3125 100.996094C348.476563 100.996094 348.265625 100.886719 348.265625 100.183594L348.265625 97.640625C348.53125 97.191406 348.890625 96.722656 349.144531 96.722656 349.28125 96.722656 349.503906 97.101563 349.871094 97.101563 350.117188 97.101563 350.359375 96.925781 350.359375 96.5 350.359375 96.121094 350.148438 95.875 349.714844 95.875 349.179688 95.875 348.84375 96.265625 348.273438 97.09375L348.242188 97.09375 348.242188 95.941406M355.03125 99.726563C354.671875 100.191406 354.328125 100.59375 353.421875 100.59375 352.53125 100.59375 351.683594 99.890625 351.683594 98.351563L355.207031 98.351563C355.152344 96.789063 354.351563 95.910156 353.132813 95.910156 351.828125 95.910156 350.78125 96.800781 350.78125 98.664063 350.78125 100.460938 351.816406 101.429688 353.15625 101.429688 354.304688 101.429688 354.839844 100.730469 355.242188 99.882813zM351.671875 97.941406C351.761719 96.902344 352.207031 96.355469 352.964844 96.355469 353.757813 96.355469 354.128906 97.113281 354.160156 97.941406L351.671875 97.941406" />
</svg>